<svg xmlns="http://www.w3.org/2000/svg" xmlns:xlink="http://www.w3.org/1999/xlink" viewBox="0 0 1920 1080"><defs><style>.cls-1{isolation:isolate;}.cls-2{opacity:0.5;}.cls-3{mix-blend-mode:overlay;}.cls-10,.cls-11,.cls-12,.cls-13,.cls-14,.cls-15,.cls-16,.cls-17,.cls-4,.cls-43,.cls-5,.cls-6,.cls-7,.cls-8,.cls-9{fill:none;}.cls-10,.cls-11,.cls-12,.cls-13,.cls-14,.cls-15,.cls-16,.cls-17,.cls-18,.cls-19,.cls-20,.cls-21,.cls-22,.cls-23,.cls-24,.cls-25,.cls-26,.cls-27,.cls-28,.cls-29,.cls-30,.cls-31,.cls-32,.cls-33,.cls-34,.cls-35,.cls-36,.cls-37,.cls-38,.cls-39,.cls-4,.cls-40,.cls-41,.cls-42,.cls-5,.cls-6,.cls-7,.cls-8,.cls-9{stroke-miterlimit:10;stroke-width:0.5px;}.cls-4{stroke:url(#New_Gradient_Swatch_1);}.cls-5{stroke:url(#New_Gradient_Swatch_1-2);}.cls-6{stroke:url(#New_Gradient_Swatch_1-3);}.cls-7{stroke:url(#New_Gradient_Swatch_1-4);}.cls-8{stroke:url(#New_Gradient_Swatch_1-5);}.cls-9{stroke:url(#New_Gradient_Swatch_1-6);}.cls-10{stroke:url(#New_Gradient_Swatch_1-7);}.cls-11{stroke:url(#New_Gradient_Swatch_1-8);}.cls-12{stroke:url(#New_Gradient_Swatch_1-9);}.cls-13{stroke:url(#New_Gradient_Swatch_1-10);}.cls-14{stroke:url(#New_Gradient_Swatch_1-11);}.cls-15{stroke:url(#New_Gradient_Swatch_1-12);}.cls-16{stroke:url(#New_Gradient_Swatch_1-13);}.cls-17{stroke:url(#New_Gradient_Swatch_1-14);}.cls-18{fill:url(#New_Gradient_Swatch_1-15);stroke:url(#New_Gradient_Swatch_1-16);}.cls-19{fill:url(#New_Gradient_Swatch_1-17);stroke:url(#New_Gradient_Swatch_1-18);}.cls-20{fill:url(#New_Gradient_Swatch_1-19);stroke:url(#New_Gradient_Swatch_1-20);}.cls-21{fill:url(#New_Gradient_Swatch_1-21);stroke:url(#New_Gradient_Swatch_1-22);}.cls-22{fill:url(#New_Gradient_Swatch_1-23);stroke:url(#New_Gradient_Swatch_1-24);}.cls-23{fill:url(#New_Gradient_Swatch_1-25);stroke:url(#New_Gradient_Swatch_1-26);}.cls-24{fill:url(#New_Gradient_Swatch_1-27);stroke:url(#New_Gradient_Swatch_1-28);}.cls-25{fill:url(#New_Gradient_Swatch_1-29);stroke:url(#New_Gradient_Swatch_1-30);}.cls-26{fill:url(#New_Gradient_Swatch_1-31);stroke:url(#New_Gradient_Swatch_1-32);}.cls-27{fill:url(#New_Gradient_Swatch_1-33);stroke:url(#New_Gradient_Swatch_1-34);}.cls-28{fill:url(#New_Gradient_Swatch_1-35);stroke:url(#New_Gradient_Swatch_1-36);}.cls-29{fill:url(#New_Gradient_Swatch_1-37);stroke:url(#New_Gradient_Swatch_1-38);}.cls-30{fill:url(#New_Gradient_Swatch_1-39);stroke:url(#New_Gradient_Swatch_1-40);}.cls-31{fill:url(#New_Gradient_Swatch_1-41);stroke:url(#New_Gradient_Swatch_1-42);}.cls-32{fill:url(#New_Gradient_Swatch_1-43);stroke:url(#New_Gradient_Swatch_1-44);}.cls-33{fill:url(#New_Gradient_Swatch_1-45);stroke:url(#New_Gradient_Swatch_1-46);}.cls-34{fill:url(#New_Gradient_Swatch_1-47);stroke:url(#New_Gradient_Swatch_1-48);}.cls-35{fill:url(#New_Gradient_Swatch_1-49);stroke:url(#New_Gradient_Swatch_1-50);}.cls-36{fill:url(#New_Gradient_Swatch_1-51);stroke:url(#New_Gradient_Swatch_1-52);}.cls-37{fill:url(#New_Gradient_Swatch_1-53);stroke:url(#New_Gradient_Swatch_1-54);}.cls-38{fill:url(#New_Gradient_Swatch_1-55);stroke:url(#New_Gradient_Swatch_1-56);}.cls-39{fill:url(#New_Gradient_Swatch_1-57);stroke:url(#New_Gradient_Swatch_1-58);}.cls-40{fill:url(#New_Gradient_Swatch_1-59);stroke:url(#New_Gradient_Swatch_1-60);}.cls-41{fill:url(#New_Gradient_Swatch_1-61);stroke:url(#New_Gradient_Swatch_1-62);}.cls-42{fill:url(#New_Gradient_Swatch_1-63);stroke:url(#New_Gradient_Swatch_1-64);}.cls-44{mix-blend-mode:color-dodge;}.cls-45{opacity:0.2;}.cls-46{fill:url(#New_Gradient_Swatch_1-65);}.cls-47{opacity:0.23;}.cls-48{fill:url(#New_Gradient_Swatch_1-66);}.cls-49{opacity:0.25;}.cls-50{fill:url(#New_Gradient_Swatch_1-67);}.cls-51{opacity:0.28;}.cls-52{fill:url(#New_Gradient_Swatch_1-68);}.cls-53{opacity:0.3;}.cls-54{fill:url(#New_Gradient_Swatch_1-69);}.cls-55{opacity:0.33;}.cls-56{fill:url(#New_Gradient_Swatch_1-70);}.cls-57{opacity:0.35;}.cls-58{fill:url(#New_Gradient_Swatch_1-71);}.cls-59{opacity:0.38;}.cls-60{fill:url(#New_Gradient_Swatch_1-72);}.cls-61{opacity:0.41;}.cls-62{fill:url(#New_Gradient_Swatch_1-73);}.cls-63{opacity:0.43;}.cls-64{fill:url(#New_Gradient_Swatch_1-74);}.cls-65{opacity:0.46;}.cls-66{fill:url(#New_Gradient_Swatch_1-75);}.cls-67{opacity:0.48;}.cls-68{fill:url(#New_Gradient_Swatch_1-76);}.cls-69{opacity:0.51;}.cls-70{fill:url(#New_Gradient_Swatch_1-77);}.cls-71{opacity:0.54;}.cls-72{fill:url(#New_Gradient_Swatch_1-78);}.cls-73{opacity:0.56;}.cls-74{fill:url(#New_Gradient_Swatch_1-79);}.cls-75{opacity:0.59;}.cls-76{fill:url(#New_Gradient_Swatch_1-80);}.cls-77{opacity:0.61;}.cls-78{fill:url(#New_Gradient_Swatch_1-81);}.cls-79{opacity:0.64;}.cls-80{fill:url(#New_Gradient_Swatch_1-82);}.cls-81{opacity:0.66;}.cls-82{fill:url(#New_Gradient_Swatch_1-83);}.cls-83{opacity:0.69;}.cls-84{fill:url(#New_Gradient_Swatch_1-84);}.cls-85{opacity:0.72;}.cls-86{fill:url(#New_Gradient_Swatch_1-85);}.cls-87{opacity:0.74;}.cls-88{fill:url(#New_Gradient_Swatch_1-86);}.cls-89{opacity:0.77;}.cls-90{fill:url(#New_Gradient_Swatch_1-87);}.cls-91{opacity:0.79;}.cls-92{fill:url(#New_Gradient_Swatch_1-88);}.cls-93{opacity:0.82;}.cls-94{fill:url(#New_Gradient_Swatch_1-89);}.cls-95{opacity:0.85;}.cls-96{fill:url(#New_Gradient_Swatch_1-90);}.cls-97{opacity:0.87;}.cls-98{fill:url(#New_Gradient_Swatch_1-91);}.cls-99{opacity:0.9;}.cls-100{fill:url(#New_Gradient_Swatch_1-92);}.cls-101{opacity:0.92;}.cls-102{fill:url(#New_Gradient_Swatch_1-93);}.cls-103{opacity:0.95;}.cls-104{fill:url(#New_Gradient_Swatch_1-94);}.cls-105{opacity:0.97;}.cls-106{fill:url(#New_Gradient_Swatch_1-95);}.cls-107{fill:url(#New_Gradient_Swatch_1-96);}</style><linearGradient id="New_Gradient_Swatch_1" x1="124.78" y1="985.11" x2="314.29" y2="985.11" gradientUnits="userSpaceOnUse"><stop offset="0" stop-color="#00aeff"/><stop offset="1" stop-color="#0086ff"/></linearGradient><linearGradient id="New_Gradient_Swatch_1-2" x1="-55.03" y1="695.55" x2="2002.9" y2="695.55" xlink:href="#New_Gradient_Swatch_1"/><linearGradient id="New_Gradient_Swatch_1-3" x1="-54.72" y1="610.11" x2="171.6" y2="610.11" xlink:href="#New_Gradient_Swatch_1"/><linearGradient id="New_Gradient_Swatch_1-4" x1="170.9" y1="695.15" x2="1953.55" y2="695.15" xlink:href="#New_Gradient_Swatch_1"/><linearGradient id="New_Gradient_Swatch_1-5" x1="412.29" y1="871.44" x2="540.83" y2="871.44" xlink:href="#New_Gradient_Swatch_1"/><linearGradient id="New_Gradient_Swatch_1-6" x1="539.96" y1="836.51" x2="948.81" y2="836.51" xlink:href="#New_Gradient_Swatch_1"/><linearGradient id="New_Gradient_Swatch_1-7" x1="731.99" y1="693.83" x2="941.4" y2="693.83" xlink:href="#New_Gradient_Swatch_1"/><linearGradient id="New_Gradient_Swatch_1-8" x1="1233.35" y1="534.04" x2="1470.91" y2="534.04" xlink:href="#New_Gradient_Swatch_1"/><linearGradient id="New_Gradient_Swatch_1-9" x1="1404.4" y1="753.35" x2="1496.24" y2="753.35" xlink:href="#New_Gradient_Swatch_1"/><linearGradient id="New_Gradient_Swatch_1-10" x1="1543.09" y1="809.67" x2="1698.64" y2="809.67" xlink:href="#New_Gradient_Swatch_1"/><linearGradient id="New_Gradient_Swatch_1-11" x1="1634.69" y1="883.08" x2="1874.57" y2="883.08" xlink:href="#New_Gradient_Swatch_1"/><linearGradient id="New_Gradient_Swatch_1-12" x1="1840.55" y1="1027.62" x2="2002.72" y2="1027.62" xlink:href="#New_Gradient_Swatch_1"/><linearGradient id="New_Gradient_Swatch_1-13" x1="540.28" y1="781.8" x2="628.02" y2="781.8" xlink:href="#New_Gradient_Swatch_1"/><linearGradient id="New_Gradient_Swatch_1-14" x1="1034.87" y1="775.3" x2="1265.16" y2="775.3" xlink:href="#New_Gradient_Swatch_1"/><linearGradient id="New_Gradient_Swatch_1-15" x1="113.49" y1="1073.37" x2="137.53" y2="1073.37" xlink:href="#New_Gradient_Swatch_1"/><linearGradient id="New_Gradient_Swatch_1-16" x1="113.24" y1="1073.37" x2="137.78" y2="1073.37" xlink:href="#New_Gradient_Swatch_1"/><linearGradient id="New_Gradient_Swatch_1-17" x1="479.74" y1="1098.11" x2="517.38" y2="1098.11" xlink:href="#New_Gradient_Swatch_1"/><linearGradient id="New_Gradient_Swatch_1-18" x1="479.49" y1="1098.11" x2="517.63" y2="1098.11" xlink:href="#New_Gradient_Swatch_1"/><linearGradient id="New_Gradient_Swatch_1-19" x1="298.04" y1="907.7" x2="329.33" y2="907.7" xlink:href="#New_Gradient_Swatch_1"/><linearGradient id="New_Gradient_Swatch_1-20" x1="297.79" y1="907.7" x2="329.58" y2="907.7" xlink:href="#New_Gradient_Swatch_1"/><linearGradient id="New_Gradient_Swatch_1-21" x1="125.51" y1="895.65" x2="156.8" y2="895.65" xlink:href="#New_Gradient_Swatch_1"/><linearGradient id="New_Gradient_Swatch_1-22" x1="125.26" y1="895.65" x2="157.05" y2="895.65" xlink:href="#New_Gradient_Swatch_1"/><linearGradient id="New_Gradient_Swatch_1-23" x1="874.63" y1="532.86" x2="905.92" y2="532.86" xlink:href="#New_Gradient_Swatch_1"/><linearGradient id="New_Gradient_Swatch_1-24" x1="874.38" y1="532.86" x2="906.17" y2="532.86" xlink:href="#New_Gradient_Swatch_1"/><linearGradient id="New_Gradient_Swatch_1-25" x1="920.44" y1="1045.94" x2="975.3" y2="1045.94" xlink:href="#New_Gradient_Swatch_1"/><linearGradient id="New_Gradient_Swatch_1-26" x1="920.19" y1="1045.94" x2="975.55" y2="1045.94" xlink:href="#New_Gradient_Swatch_1"/><linearGradient id="New_Gradient_Swatch_1-27" x1="472.18" y1="237.63" x2="513.62" y2="237.63" xlink:href="#New_Gradient_Swatch_1"/><linearGradient id="New_Gradient_Swatch_1-28" x1="471.93" y1="237.63" x2="513.87" y2="237.63" xlink:href="#New_Gradient_Swatch_1"/><linearGradient id="New_Gradient_Swatch_1-29" x1="95.71" y1="432.37" x2="116.2" y2="432.37" xlink:href="#New_Gradient_Swatch_1"/><linearGradient id="New_Gradient_Swatch_1-30" x1="95.46" y1="432.37" x2="116.45" y2="432.37" xlink:href="#New_Gradient_Swatch_1"/><linearGradient id="New_Gradient_Swatch_1-31" x1="1131.15" y1="784.18" x2="1151.63" y2="784.18" xlink:href="#New_Gradient_Swatch_1"/><linearGradient id="New_Gradient_Swatch_1-32" x1="1130.9" y1="784.18" x2="1151.88" y2="784.18" xlink:href="#New_Gradient_Swatch_1"/><linearGradient id="New_Gradient_Swatch_1-33" x1="1165.11" y1="472.54" x2="1192.54" y2="472.54" xlink:href="#New_Gradient_Swatch_1"/><linearGradient id="New_Gradient_Swatch_1-34" x1="1164.86" y1="472.54" x2="1192.79" y2="472.54" xlink:href="#New_Gradient_Swatch_1"/><linearGradient id="New_Gradient_Swatch_1-35" x1="928.88" y1="761.59" x2="956.31" y2="761.59" xlink:href="#New_Gradient_Swatch_1"/><linearGradient id="New_Gradient_Swatch_1-36" x1="928.63" y1="761.59" x2="956.56" y2="761.59" xlink:href="#New_Gradient_Swatch_1"/><linearGradient id="New_Gradient_Swatch_1-37" x1="1452.68" y1="372.18" x2="1488.65" y2="372.18" xlink:href="#New_Gradient_Swatch_1"/><linearGradient id="New_Gradient_Swatch_1-38" x1="1452.43" y1="372.18" x2="1488.9" y2="372.18" xlink:href="#New_Gradient_Swatch_1"/><linearGradient id="New_Gradient_Swatch_1-39" x1="295.7" y1="490.53" x2="331.67" y2="490.53" xlink:href="#New_Gradient_Swatch_1"/><linearGradient id="New_Gradient_Swatch_1-40" x1="295.45" y1="490.53" x2="331.92" y2="490.53" xlink:href="#New_Gradient_Swatch_1"/><linearGradient id="New_Gradient_Swatch_1-41" x1="615.07" y1="919.61" x2="640.5" y2="919.61" xlink:href="#New_Gradient_Swatch_1"/><linearGradient id="New_Gradient_Swatch_1-42" x1="614.82" y1="919.61" x2="640.75" y2="919.61" xlink:href="#New_Gradient_Swatch_1"/><linearGradient id="New_Gradient_Swatch_1-43" x1="1483.33" y1="811.1" x2="1508.76" y2="811.1" xlink:href="#New_Gradient_Swatch_1"/><linearGradient id="New_Gradient_Swatch_1-44" x1="1483.08" y1="811.1" x2="1509.01" y2="811.1" xlink:href="#New_Gradient_Swatch_1"/><linearGradient id="New_Gradient_Swatch_1-45" x1="1285.31" y1="926.25" x2="1312.73" y2="926.25" xlink:href="#New_Gradient_Swatch_1"/><linearGradient id="New_Gradient_Swatch_1-46" x1="1285.06" y1="926.25" x2="1312.98" y2="926.25" xlink:href="#New_Gradient_Swatch_1"/><linearGradient id="New_Gradient_Swatch_1-47" x1="1445.45" y1="1038.54" x2="1460.24" y2="1038.54" xlink:href="#New_Gradient_Swatch_1"/><linearGradient id="New_Gradient_Swatch_1-48" x1="1445.2" y1="1038.54" x2="1460.49" y2="1038.54" xlink:href="#New_Gradient_Swatch_1"/><linearGradient id="New_Gradient_Swatch_1-49" x1="1840.66" y1="911.29" x2="1855.45" y2="911.29" xlink:href="#New_Gradient_Swatch_1"/><linearGradient id="New_Gradient_Swatch_1-50" x1="1840.41" y1="911.29" x2="1855.7" y2="911.29" xlink:href="#New_Gradient_Swatch_1"/><linearGradient id="New_Gradient_Swatch_1-51" x1="1226.05" y1="626.07" x2="1240.84" y2="626.07" xlink:href="#New_Gradient_Swatch_1"/><linearGradient id="New_Gradient_Swatch_1-52" x1="1225.8" y1="626.07" x2="1241.09" y2="626.07" xlink:href="#New_Gradient_Swatch_1"/><linearGradient id="New_Gradient_Swatch_1-53" x1="1054.96" y1="624.72" x2="1069.74" y2="624.72" xlink:href="#New_Gradient_Swatch_1"/><linearGradient id="New_Gradient_Swatch_1-54" x1="1054.71" y1="624.72" x2="1069.99" y2="624.72" xlink:href="#New_Gradient_Swatch_1"/><linearGradient id="New_Gradient_Swatch_1-55" x1="1666.62" y1="787.63" x2="1681.41" y2="787.63" xlink:href="#New_Gradient_Swatch_1"/><linearGradient id="New_Gradient_Swatch_1-56" x1="1666.37" y1="787.63" x2="1681.66" y2="787.63" xlink:href="#New_Gradient_Swatch_1"/><linearGradient id="New_Gradient_Swatch_1-57" x1="250.53" y1="601.34" x2="265.32" y2="601.34" xlink:href="#New_Gradient_Swatch_1"/><linearGradient id="New_Gradient_Swatch_1-58" x1="250.28" y1="601.34" x2="265.57" y2="601.34" xlink:href="#New_Gradient_Swatch_1"/><linearGradient id="New_Gradient_Swatch_1-59" x1="1861.35" y1="695.6" x2="1890.43" y2="695.6" xlink:href="#New_Gradient_Swatch_1"/><linearGradient id="New_Gradient_Swatch_1-60" x1="1861.1" y1="695.6" x2="1890.68" y2="695.6" xlink:href="#New_Gradient_Swatch_1"/><linearGradient id="New_Gradient_Swatch_1-61" x1="1696.23" y1="585.54" x2="1740.26" y2="585.54" xlink:href="#New_Gradient_Swatch_1"/><linearGradient id="New_Gradient_Swatch_1-62" x1="1695.98" y1="585.54" x2="1740.51" y2="585.54" xlink:href="#New_Gradient_Swatch_1"/><linearGradient id="New_Gradient_Swatch_1-63" x1="1535.08" y1="633.06" x2="1551.47" y2="633.06" xlink:href="#New_Gradient_Swatch_1"/><linearGradient id="New_Gradient_Swatch_1-64" x1="1534.83" y1="633.06" x2="1551.72" y2="633.06" xlink:href="#New_Gradient_Swatch_1"/><linearGradient id="New_Gradient_Swatch_1-65" x1="-0.28" y1="858.01" x2="2010.96" y2="858.01" xlink:href="#New_Gradient_Swatch_1"/><linearGradient id="New_Gradient_Swatch_1-66" x1="-1.12" y1="858.21" x2="2008.27" y2="858.21" xlink:href="#New_Gradient_Swatch_1"/><linearGradient id="New_Gradient_Swatch_1-67" x1="-1.96" y1="858.1" x2="2005.58" y2="858.1" xlink:href="#New_Gradient_Swatch_1"/><linearGradient id="New_Gradient_Swatch_1-68" x1="-2.8" y1="857.73" x2="2002.89" y2="857.73" xlink:href="#New_Gradient_Swatch_1"/><linearGradient id="New_Gradient_Swatch_1-69" x1="-3.63" y1="857.11" x2="2000.2" y2="857.11" xlink:href="#New_Gradient_Swatch_1"/><linearGradient id="New_Gradient_Swatch_1-70" x1="-4.47" y1="856.27" x2="1997.51" y2="856.27" xlink:href="#New_Gradient_Swatch_1"/><linearGradient id="New_Gradient_Swatch_1-71" x1="-5.31" y1="855.24" x2="1994.82" y2="855.24" xlink:href="#New_Gradient_Swatch_1"/><linearGradient id="New_Gradient_Swatch_1-72" x1="-6.15" y1="857.92" x2="1992.13" y2="857.92" xlink:href="#New_Gradient_Swatch_1"/><linearGradient id="New_Gradient_Swatch_1-73" x1="-6.99" y1="861.39" x2="1989.44" y2="861.39" xlink:href="#New_Gradient_Swatch_1"/><linearGradient id="New_Gradient_Swatch_1-74" x1="-7.82" y1="864.71" x2="1986.75" y2="864.71" xlink:href="#New_Gradient_Swatch_1"/><linearGradient id="New_Gradient_Swatch_1-75" x1="-8.66" y1="867.95" x2="1984.06" y2="867.95" xlink:href="#New_Gradient_Swatch_1"/><linearGradient id="New_Gradient_Swatch_1-76" x1="-9.5" y1="871.04" x2="1981.37" y2="871.04" xlink:href="#New_Gradient_Swatch_1"/><linearGradient id="New_Gradient_Swatch_1-77" x1="-10.34" y1="872.16" x2="1978.68" y2="872.16" xlink:href="#New_Gradient_Swatch_1"/><linearGradient id="New_Gradient_Swatch_1-78" x1="-11.18" y1="868.83" x2="1975.99" y2="868.83" xlink:href="#New_Gradient_Swatch_1"/><linearGradient id="New_Gradient_Swatch_1-79" x1="-12.01" y1="865.46" x2="1973.3" y2="865.46" xlink:href="#New_Gradient_Swatch_1"/><linearGradient id="New_Gradient_Swatch_1-80" x1="-12.85" y1="862.08" x2="1970.6" y2="862.08" xlink:href="#New_Gradient_Swatch_1"/><linearGradient id="New_Gradient_Swatch_1-81" x1="-13.69" y1="858.7" x2="1967.91" y2="858.7" xlink:href="#New_Gradient_Swatch_1"/><linearGradient id="New_Gradient_Swatch_1-82" x1="-14.53" y1="855.29" x2="1965.22" y2="855.29" xlink:href="#New_Gradient_Swatch_1"/><linearGradient id="New_Gradient_Swatch_1-83" x1="-15.37" y1="851.89" x2="1962.53" y2="851.89" xlink:href="#New_Gradient_Swatch_1"/><linearGradient id="New_Gradient_Swatch_1-84" x1="-16.2" y1="848.52" x2="1959.84" y2="848.52" xlink:href="#New_Gradient_Swatch_1"/><linearGradient id="New_Gradient_Swatch_1-85" x1="-17.04" y1="845.11" x2="1957.15" y2="845.11" xlink:href="#New_Gradient_Swatch_1"/><linearGradient id="New_Gradient_Swatch_1-86" x1="-17.88" y1="841.69" x2="1954.46" y2="841.69" xlink:href="#New_Gradient_Swatch_1"/><linearGradient id="New_Gradient_Swatch_1-87" x1="-18.72" y1="836.19" x2="1951.77" y2="836.19" xlink:href="#New_Gradient_Swatch_1"/><linearGradient id="New_Gradient_Swatch_1-88" x1="-19.56" y1="829.55" x2="1949.08" y2="829.55" xlink:href="#New_Gradient_Swatch_1"/><linearGradient id="New_Gradient_Swatch_1-89" x1="-20.39" y1="822.92" x2="1946.39" y2="822.92" xlink:href="#New_Gradient_Swatch_1"/><linearGradient id="New_Gradient_Swatch_1-90" x1="-21.23" y1="816.31" x2="1943.7" y2="816.31" xlink:href="#New_Gradient_Swatch_1"/><linearGradient id="New_Gradient_Swatch_1-91" x1="-22.07" y1="809.64" x2="1941.01" y2="809.64" xlink:href="#New_Gradient_Swatch_1"/><linearGradient id="New_Gradient_Swatch_1-92" x1="-22.91" y1="802.98" x2="1938.32" y2="802.98" xlink:href="#New_Gradient_Swatch_1"/><linearGradient id="New_Gradient_Swatch_1-93" x1="-23.75" y1="796.3" x2="1935.63" y2="796.3" xlink:href="#New_Gradient_Swatch_1"/><linearGradient id="New_Gradient_Swatch_1-94" x1="-24.58" y1="789.67" x2="1932.94" y2="789.67" xlink:href="#New_Gradient_Swatch_1"/><linearGradient id="New_Gradient_Swatch_1-95" x1="-25.42" y1="782.99" x2="1930.25" y2="782.99" xlink:href="#New_Gradient_Swatch_1"/><linearGradient id="New_Gradient_Swatch_1-96" x1="-26.26" y1="776.42" x2="1927.59" y2="776.42" xlink:href="#New_Gradient_Swatch_1"/></defs><g class="cls-1"><g id="Layer_1" data-name="Layer 1"><g class="cls-2"><g class="cls-3"><polygon class="cls-4" points="142.93 895.65 125.09 1074.25 313.68 910.88 142.93 895.65"/><polygon class="cls-5" points="142.93 895.65 171.3 787.63 313.68 910.88 498.14 1098.11 627.79 919.61 947.87 1045.94 941.26 761.59 1142.49 784.18 1298.05 926.25 1496.05 811.1 1450.73 1038.05 1634.84 1034.39 1751.6 1146.8 1953.4 1153.57 2002.6 984.95 1848.54 910.21 1874.36 695.57 1675.02 786.27 1716.83 584.19 1543.28 634.52 1470.67 372.18 1233.45 624.72 1179.35 472.18 1062.92 624.93 890.63 532.86 491.31 237.63 317.63 490.53 256.35 602.82 104.2 432.37 -54.71 781.11 142.93 895.65"/><polyline class="cls-6" points="-54.71 781.11 171.3 787.63 104.2 432.37"/><polyline class="cls-7" points="313.68 910.88 412.57 770.31 171.3 787.63 256.35 602.82 412.57 770.31 317.63 490.53 540.51 643.99 491.31 237.63 732.13 626.07 890.63 532.86 941.26 761.59 1062.92 624.93 1142.49 784.18 1233.45 624.72 1298.05 926.25 1404.6 695.6 1543.28 634.52 1496.05 811.1 1675.02 786.27 1450.73 1038.05 1698.4 984.95 1751.6 1146.8 1840.66 1070.29 1953.4 1153.57"/><polygon class="cls-8" points="498.14 1098.11 412.57 770.31 540.51 643.99 498.14 1098.11"/><polygon class="cls-9" points="732.13 626.07 540.51 643.99 947.87 1045.94 732.13 626.07"/><line class="cls-10" x1="941.26" y1="761.59" x2="732.12" y2="626.07"/><polyline class="cls-11" points="1233.45 624.72 1404.6 695.6 1470.67 372.18"/><line class="cls-12" x1="1496.05" y1="811.1" x2="1404.6" y2="695.6"/><polyline class="cls-13" points="1543.28 634.52 1675.02 786.27 1698.4 984.95"/><polyline class="cls-14" points="1634.84 1034.39 1698.4 984.95 1848.54 910.21 1840.66 1070.29 1698.4 984.95 1874.36 695.57"/><line class="cls-15" x1="1840.66" y1="1070.29" x2="2002.6" y2="984.95"/><line class="cls-16" x1="627.79" y1="919.61" x2="540.52" y2="643.99"/><line class="cls-17" x1="1035" y1="708.31" x2="1265.04" y2="842.29"/><circle class="cls-18" cx="125.51" cy="1073.37" r="12.02"/><circle class="cls-19" cx="498.56" cy="1098.11" r="18.82"/><circle class="cls-20" cx="313.68" cy="907.7" r="15.64"/><circle class="cls-21" cx="141.15" cy="895.65" r="15.64"/><circle class="cls-22" cx="890.27" cy="532.86" r="15.64"/><circle class="cls-23" cx="947.87" cy="1045.94" r="27.43"/><circle class="cls-24" cx="492.9" cy="237.63" r="20.72"/><circle class="cls-25" cx="105.96" cy="432.37" r="10.24"/><circle class="cls-26" cx="1141.39" cy="784.18" r="10.24"/><circle class="cls-27" cx="1178.82" cy="472.54" r="13.71"/><circle class="cls-28" cx="942.6" cy="761.59" r="13.71"/><circle class="cls-29" cx="1470.67" cy="372.18" r="17.98"/><circle class="cls-30" cx="313.68" cy="490.53" r="17.98"/><circle class="cls-31" cx="627.79" cy="919.61" r="12.72"/><circle class="cls-32" cx="1496.05" cy="811.1" r="12.72"/><circle class="cls-33" cx="1299.02" cy="926.25" r="13.71"/><circle class="cls-34" cx="1452.84" cy="1038.54" r="7.39"/><circle class="cls-35" cx="1848.06" cy="911.29" r="7.39"/><circle class="cls-36" cx="1233.45" cy="626.07" r="7.39"/><circle class="cls-37" cx="1062.35" cy="624.72" r="7.39"/><circle class="cls-38" cx="1674.01" cy="787.63" r="7.39"/><circle class="cls-39" cx="257.92" cy="601.34" r="7.39"/><circle class="cls-40" cx="1875.89" cy="695.6" r="14.54"/><circle class="cls-41" cx="1718.24" cy="585.54" r="22.02"/><circle class="cls-42" cx="1543.28" cy="633.06" r="8.2"/></g><rect class="cls-43" x="-0.16" y="0.36" width="1920" height="1080"/><g class="cls-44"><g class="cls-45"><path class="cls-46" d="M0,1115.18l-.25,0c4.32-53.91,12.4-103,24-145.74C34.5,929.76,48.4,895.08,65,866.34c15.44-26.67,33.24-48.25,52.91-64.14,18.4-14.87,38.2-24.6,58.86-28.93,29.34-6.14,59.47-1.09,87.15,14.61,27.47,15.58,51.14,40.85,68.44,73.07,21.35,39.76,45.26,71.89,70.47,97.77q-40.31-41.18-70.69-97.65C297,795.5,236,761.13,176.85,773.52c-43,9-81.62,41.15-111.6,93C30.32,926.79,8.36,1010.47,0,1115.18Zm648.19-54q-11.42,0-22.69-.69a345.87,345.87,0,0,1-84.83-15.76,327.47,327.47,0,0,1-37.94-14.86c43.37,20,86.08,28.14,122.78,30.37,162.86,9.9,343-89.87,458.85-254.18,24.35-34.53,49.22-65.09,73.91-90.82a517.15,517.15,0,0,1,48.16-44.46c-41,33.11-81.47,78.14-121.87,135.42C1027.16,887.6,953.64,954.42,871.91,999.5,798.32,1040.08,721.45,1061.23,648.16,1061.23Zm1295.17-72.57c-19.88,0-43.41-11.58-72.95-35.72-31.45-25.7-67.09-63.53-104.83-103.58-104.62-111-233.92-248.26-381.38-248.26-5.55,0-11.1.19-16.7.59-37.78,2.67-74.71,14.21-111.11,34.85a294.74,294.74,0,0,1,43.57-20.39,246,246,0,0,1,67.52-14.71c154.56-11,289.69,132.49,398.29,247.75,37.72,40,73.36,77.87,104.8,103.55,34.8,28.44,61.21,39.41,83.13,34.55,23.69-5.25,42.35-29.45,57-74l.24.08c-14.73,44.61-33.46,68.86-57.24,74.14A48.15,48.15,0,0,1,1943.33,988.66Z"/></g><g class="cls-47"><path class="cls-48" d="M-.83,1105.51l-.29,0c4.34-53.16,12.41-101.54,24-143.79,10.75-39.19,24.61-73.48,41.19-101.94,30-51.38,68.58-83.51,111.71-92.92,29.61-6.47,60.13-1.79,88.27,13.51,27.89,15.17,52,40,69.89,71.77,84.18,150,196.89,217.27,344.57,205.58,138.29-11.49,286.25-106.24,395.79-253.44,25.3-34,50.93-63.85,76.16-88.72,24.47-24.11,49.32-44.28,73.88-60,23.71-15.14,47.9-26.56,71.88-34a238.45,238.45,0,0,1,70.2-10.7h.81c155.45,0,288.72,130.85,395.84,236,38,37.3,73.87,72.53,105.29,96.13,34.73,26.08,61,35.77,82.71,30.51,23.78-5.76,42.41-30,56.94-73.94l.27.09c-14.56,44.09-33.25,68.34-57.14,74.13-21.79,5.29-48.15-4.43-83-30.56-31.44-23.61-67.33-58.85-105.32-96.15C1655.78,742,1522.54,611.21,1367.22,611.21h-.81c-99.67,0-195.14,63.2-291.89,193.22-52.64,70.74-116.33,131.43-184.18,175.51-34.38,22.33-69.61,40.28-104.72,53.37-36.15,13.46-72.18,21.76-107.09,24.67-35.58,2.81-69.48,1.07-100.76-5.18a301,301,0,0,1-91.12-34.13c-28.95-16.62-56.33-38.8-81.4-65.91-25.62-27.7-49.7-61.52-71.57-100.51-36.32-64.73-98.28-98.15-157.85-85.14-43.05,9.4-81.61,41.48-111.51,92.78C29.51,919.6,7.6,1002.23-.83,1105.51Z"/></g><g class="cls-49"><path class="cls-50" d="M-1.63,1095.84l-.33,0c4.36-52.43,12.42-100.16,24-141.87,10.73-38.7,24.56-72.62,41.11-100.81,29.88-50.89,68.49-83,111.67-92.76,29.88-6.78,60.79-2.48,89.4,12.43,28.29,14.75,52.93,39.12,71.27,70.46C372.17,906,408.6,953.41,447.86,987.45A399.75,399.75,0,0,1,406.5,945.7c-24.05-27.89-47.38-61.34-71.32-102.27-37.36-63.88-100.28-96.36-160.31-82.74-43.08,9.78-81.63,41.8-111.46,92.61C28.71,912.39,6.83,994-1.63,1095.84Zm644.71-38c-27.54,0-52.71-2.79-76.47-8.45a268.8,268.8,0,0,1-46.36-15.52c36.89,16.17,77.11,23.64,122.53,23.64,7,0,14.07-.17,21.31-.52,130.43-6.28,280-101.45,400.16-254.58,25.86-33,51.86-61.73,77.28-85.5,24.9-23.29,50.08-42.56,74.84-57.29,24.16-14.37,48.75-24.91,73.09-31.33a237.29,237.29,0,0,1,72-7.64c70.15,3.38,141.5,29.16,218.12,78.82,66.36,43,126.36,97.1,179.29,144.83,38.54,34.75,74.94,67.58,106.58,89.22,34.89,23.87,61.2,32.32,82.82,26.59,24-6.34,42.58-30.59,57-74.13l.31.11c-14.41,43.65-33.12,68-57.18,74.34-21.72,5.75-48.13-2.71-83.1-26.63-31.65-21.66-68.07-54.49-106.61-89.25C1652,748.32,1519.18,628.57,1361.48,621c-100.18-4.82-197.3,54.59-297,181.63C1008,874.58,943,935.89,876.3,979.9c-35.09,23.17-70.5,41.48-105.24,54.42-36.51,13.59-72.49,21.33-107,23Q653.36,1057.82,643.08,1057.83Z"/></g><g class="cls-51"><path class="cls-52" d="M-2.43,1086.17l-.37,0c4.37-51.7,12.44-98.78,24-140q5.56-19.87,12.23-38C16.92,953.29,3.9,1011.36-2.43,1086.17Zm645.11-29.48c-67.78,0-118.88-15.21-164.93-48.93-45.18-33.09-87.36-84.88-141.06-173.15C298.34,771.57,234.47,740,174,754.26c-27.34,6.43-77.33,28.41-117.8,102.91q3-5.46,6-10.68c29.83-50.4,68.45-82.42,111.68-92.59,30.15-7.09,61.45-3.17,90.51,11.35,28.69,14.34,53.8,38.26,72.61,69.17,104.65,172,177.72,223.89,312.67,221.85,124.28-1.87,271.73-95.08,404.53-255.73,26.39-31.92,52.75-59.62,78.34-82.31,25.32-22.46,50.83-40.85,75.81-54.65,24.6-13.6,49.61-23.26,74.33-28.72a238.32,238.32,0,0,1,73.9-4.5c70.67,6.71,142.19,32.44,218.65,78.64,66.19,40,125.66,88.93,178.13,132.1,81,66.64,145,119.27,192.13,105.63,24.15-7,42.81-31.34,57-74.43l.35.12c-14.27,43.22-33,67.64-57.29,74.66a56.72,56.72,0,0,1-15.89,2.18c-45.46,0-104.23-48.35-176.57-107.88-105.9-87.12-237.69-195.56-396.59-210.65-102.15-9.7-198.13,44.34-302,170-60.77,73.5-127.26,135.4-192.3,179-35.77,24-71.34,42.63-105.74,55.45-36.78,13.71-72.71,20.92-106.78,21.43C647.33,1056.67,645,1056.69,642.68,1056.69Z"/></g><g class="cls-53"><path class="cls-54" d="M-3.22,1076.5l-.41,0c4.38-51,12.45-97.4,24-138,10.7-37.77,24.5-70.93,41-98.58C91.11,789.92,129.74,758,173,747.42c30.44-7.4,62.13-3.85,91.63,10.27,29.09,13.93,54.64,37.41,73.89,67.88,104.14,164.89,156.7,227.43,296.72,230,64.87,1.18,136.39-24.48,212.56-76.27,63.63-43.27,129.7-104,196.35-180.61,106.68-122.54,204.38-172.93,307.51-158.59,70.66,9.83,141.91,35.33,217.81,78,65.68,36.9,124.45,80.69,176.31,119.32,83.37,62.11,149.21,111.18,196.77,96.17,24.41-7.71,43.14-32.21,57.24-74.91l.39.13c-14.15,42.83-33,67.42-57.51,75.17a61.14,61.14,0,0,1-18.52,2.74c-45.78,0-105.45-44.46-178.62-99-104.7-78-235-175.1-393.93-197.21-103-14.32-200.56,36-307.14,158.46-66.68,76.6-132.77,137.39-196.43,180.68C773.5,1030.33,703.38,1056,639.57,1056c-1.44,0-2.88,0-4.31,0-70-1.28-118.44-17.35-161.93-53.73C431.08,966.88,393.24,913,338.2,825.79c-39.29-62.21-104.09-92.81-165.08-78-43.18,10.51-81.71,42.4-111.44,92.23C27.13,898,5.3,977.5-3.22,1076.5Z"/></g><g class="cls-55"><path class="cls-56" d="M-4,1066.83l-.45,0c8.55-97.65,30.4-176.25,64.92-233.62,29.76-49.45,68.4-81.34,111.75-92.23,30.73-7.72,62.8-4.54,92.74,9.19,29.49,13.52,55.47,36.55,75.14,66.59,7.94,12.14,15.42,23.64,22.65,34.77,93,143.09,127.79,196.63,258.12,203.36,63.55,3.28,135.13-22.2,212.74-75.73,61.26-42.25,126.86-101.88,200.55-182.29,55.27-60.32,107-101.34,158-125.39s101.76-31.18,154.61-21.63c157.4,28.46,285.61,114.27,388.62,183.21,87,58.22,155.68,104.19,204.08,87.56,24.77-8.51,43.62-33.25,57.61-75.63l.43.15c-14,42.52-33,67.35-57.89,75.91-22.37,7.68-50.19,2.77-87.53-15.49-34-16.63-72.45-42.34-116.95-72.12-103-68.93-231.14-154.71-388.45-183.14-104-18.8-203.18,27.87-312.22,146.87-73.71,80.45-139.33,140.1-200.62,182.36-37,25.54-72.91,44.88-106.65,57.48-37.18,13.89-73,20.06-106.37,18.33-64.56-3.33-106.11-18-143.43-50.81-36.7-32.2-67.87-80.16-115-152.76-7.23-11.12-14.71-22.63-22.65-34.76-40.18-61.37-105.88-91.05-167.39-75.6-43.23,10.87-81.78,42.69-111.47,92C26.35,890.71,4.53,969.25-4,1066.83Z"/></g><g class="cls-57"><path class="cls-58" d="M-4.82,1057.16l-.49,0C3.28,960.87,25.11,883.27,59.6,826.48c29.73-49,68.4-80.8,111.82-92,31-8,63.47-5.22,93.85,8.12,29.88,13.12,56.28,35.7,76.35,65.32,22.32,32.94,40.6,61.78,56.72,87.22,67,105.65,94.67,149.38,208.1,159,63.2,5.38,132.83-19.21,212.88-75.19,74.11-51.83,145.11-122.09,204.78-184,56.27-58.36,108.57-97.49,159.89-119.64,52.21-22.52,103.86-27.69,157.88-15.79,153.49,33.8,278.54,108.4,379,168.34,47.47,28.31,88.46,52.77,124.29,68.08,39.11,16.72,68,20.52,91,11.95,25.23-9.41,44.27-34.48,58.19-76.63l.47.16c-14,42.3-33.1,67.46-58.49,76.93-23.09,8.61-52.12,4.81-91.36-12-35.85-15.32-76.86-39.78-124.34-68.11C1620.19,768.38,1495.18,693.81,1341.76,660c-106.6-23.48-204.46,18.25-317.31,135.29-59.69,61.91-130.7,132.19-204.85,184-37.62,26.31-73.64,46-107.07,58.49-37.32,14-73,19.61-106.13,16.79-28.38-2.42-51.61-7-71-14a156.83,156.83,0,0,1-50.53-29.34C455.38,986,431.28,948,397.93,895.37c-16.12-25.44-34.4-54.28-56.72-87.22-41-60.55-107.64-89.3-169.67-73.24-43.29,11.21-81.86,43-111.52,91.82C25.57,883.46,3.76,961-4.82,1057.16Z"/></g><g class="cls-59"><path class="cls-60" d="M613.87,1055.25A184.37,184.37,0,0,1,592,1054c-49.16-5.84-80.74-17.62-105.6-39.37-24.23-21.19-42.06-51.59-66.75-93.65-19.06-32.48-42.78-72.9-76.9-121.6-41.85-59.74-109.33-87.56-171.92-70.9C127.45,740,88.86,771.67,59.21,820.05,24.8,876.2,3,952.73-5.62,1047.49l-.53,0C2.47,952.6,24.3,876,58.76,819.77c29.72-48.5,68.41-80.26,111.91-91.84,31.31-8.34,64.15-5.9,95,7.05,30.26,12.71,57.07,34.86,77.51,64,34.14,48.73,57.87,89.16,76.93,121.64,50.12,85.4,70.86,120.75,172,132.76,62,7.38,131.68-17,213-74.67,73.93-52.42,148.86-126.29,209.06-185.65,57.18-56.37,110.07-93.64,161.7-113.91,53.25-20.92,106-24.17,161.2-9.94,146.26,37.69,266.5,101.23,363.11,152.29,104.55,55.24,180.08,95.16,232.44,74.08,25.88-10.43,45.22-36,59.11-78l.51.17c-14,42.23-33.38,67.86-59.42,78.34-52.59,21.18-128.22-18.79-232.89-74.1-96.59-51-216.8-114.57-363-152.24-108-27.82-207.4,10.33-322.39,123.71-60.22,59.37-135.16,133.26-209.13,185.7C733.34,1030.21,670.44,1055.24,613.87,1055.25Z"/></g><g class="cls-61"><path class="cls-62" d="M604,1055.29a174.58,174.58,0,0,1-26.44-2c-92-14.06-108.7-46.24-145.19-116.77-19.56-37.81-43.9-84.87-88.13-146-42.62-58.92-111-85.83-174.13-68.55-43.42,11.87-82,43.48-111.68,91.38C24,868.94,2.22,944.46-6.42,1037.82l-.57,0C1.66,944.32,23.5,868.71,57.93,813.05c29.71-48,68.44-79.72,112-91.64,31.62-8.65,64.85-6.58,96.09,6,30.65,12.31,57.85,34,78.66,62.79,44.25,61.17,68.6,108.25,88.17,146.08,36.39,70.34,53,102.45,144.77,116.47,57.43,8.77,122.21-12.07,198-63.71,67.08-45.68,134.39-109.18,199.48-170.59,9.49-8.95,19.3-18.21,28.87-27.18,117.14-109.81,218.31-144.43,328-112.26,133.86,39.24,246.38,91.86,336.8,134.14,118,55.16,203.2,95,259.51,70.73,26.78-11.55,46.58-37.69,60.52-79.92l.55.18c-14,42.39-33.91,68.65-60.85,80.27-11.63,5-24.49,7.31-38.59,7.31-54.45,0-127.58-34.19-221.38-78.05-90.4-42.27-202.91-94.88-336.72-134.11-109.51-32.1-210.5,2.48-327.48,112.13-9.57,9-19.38,18.22-28.87,27.18C910.44,880.27,843.12,943.79,776,989.49c-36.27,24.7-69.07,42-100.26,52.73C650.46,1051,626.76,1055.29,604,1055.29Z"/></g><g class="cls-63"><path class="cls-64" d="M592.93,1055.35a161.55,161.55,0,0,1-29.82-2.73c-84.9-15.85-98-46.18-124.07-106.6-17-39.32-40.21-93.16-93.31-164.32-43.36-58.12-112.58-84.11-176.33-66.22C73.34,742.43,9,856.4-7.21,1028.15l-.61-.05C.85,936,22.69,861.42,57.11,806.32c29.71-47.57,68.48-79.19,112.12-91.43,31.93-9,65.55-7.27,97.22,4.9,31,11.92,58.62,33.2,79.77,61.54,53.14,71.22,76.4,125.1,93.38,164.44,26,60.23,39,90.46,123.63,106.25,119.14,22.24,248.5-96.21,373.61-210.76,18.78-17.2,38.2-35,57.16-51.87,58.74-52.35,112.76-85.9,165.17-102.56,55.32-17.6,110.27-17,168,1.89,112.91,36.91,207.83,76.6,291.57,111.61,70.92,29.66,132.17,55.27,182.6,69.49,54.29,15.31,93.08,16.28,122.09,3,28.1-12.82,48.63-39.84,62.76-82.61l.58.2c-14.18,42.94-34.82,70.08-63.09,83-29.14,13.29-68.07,12.33-122.5-3-50.48-14.23-111.74-39.85-182.67-69.51-83.74-35-178.65-74.7-291.53-111.6C1215.78,653,1113.22,684,994.41,789.85c-19,16.88-38.37,34.67-57.15,51.86C822.39,946.88,703.93,1055.34,592.93,1055.35Z"/></g><g class="cls-65"><path class="cls-66" d="M582,1055.56a153.86,153.86,0,0,1-33.27-3.61c-37.61-8.3-61.2-19.55-76.5-36.47-14.61-16.16-21.68-37.23-30.62-63.92-14.05-41.91-33.29-99.32-94.32-178.68-44.08-57.32-114.15-82.4-178.52-63.9C72.63,736.61,8.21,849.42-8,1018.48l-.65-.06c8.7-90.67,30.55-164.3,65-218.85,29.71-47.1,68.52-78.65,112.24-91.22a157.53,157.53,0,0,1,98.36,3.83c31.42,11.52,59.38,32.38,80.86,60.3,61.09,79.44,80.35,136.91,94.42,178.88,17.83,53.2,27.66,82.51,106.64,99.95,50.24,11.09,107-4,173.56-46.16C781.83,967.48,843.67,912,903.47,858.39c26.39-23.67,53.67-48.13,80.5-70.86,59.39-50.33,114-82,166.84-96.94,56.38-15.89,112.46-13.32,171.44,7.85,76.18,27.36,145.42,54.18,206.5,77.85C1718,849.6,1843,898,1917,863.07c30.18-14.25,51.9-42.53,66.42-86.48l.62.21c-14.58,44.12-36.41,72.53-66.76,86.86-74.31,35.08-199.42-13.39-388.79-86.76-61.08-23.67-130.3-50.49-206.48-77.84-113-40.57-217.13-13.13-337.64,89-26.82,22.72-54.1,47.18-80.48,70.84C844.09,912.53,782.23,968,722.73,1005.7c-32,20.29-60.9,34-88.27,41.91C616.13,1052.92,598.74,1055.56,582,1055.56Z"/></g><g class="cls-67"><path class="cls-68" d="M570.33,1055.78a144.7,144.7,0,0,1-36.08-4.5c-75-19.13-81.42-46.74-93.07-96.87C431,910.43,417,850.19,348.75,764.07c-44.77-56.54-115.7-80.72-180.69-61.59C71.92,730.77,7.45,842.42-8.81,1008.82l-.69-.07c8.73-89.29,30.59-161.94,65-215.94,29.72-46.64,68.58-78.11,112.37-91a161.55,161.55,0,0,1,99.5,2.75c31.81,11.13,60.14,31.56,81.93,59.08,68.3,86.24,82.32,146.57,92.56,190.62,11.59,49.86,18,77.32,92.57,96.35,48.35,12.33,100.74-.36,164.85-39.92,56.71-35,113.78-85.45,174.21-138.87,32.79-29,66.71-59,100.45-86.15,60-48.3,115.1-78.18,168.48-91.35,57.45-14.16,114.67-9.63,174.94,13.85l15.35,6c298.54,116.34,478.73,186.56,575.28,141.1,33.65-15.85,57.44-46,72.73-92.33l.66.22c-15.35,46.47-39.26,76.8-73.1,92.74-20.33,9.57-44.35,14-72.38,14-105.4,0-267.47-63.16-503.44-155.12l-15.36-6C1202.15,664,1096.45,687.9,974.37,786.21c-33.74,27.16-67.64,57.14-100.43,86.12-60.45,53.45-117.54,103.92-174.3,138.95-30.51,18.82-58,31.33-84,38.23A175.82,175.82,0,0,1,570.33,1055.78Z"/></g><g class="cls-69"><path class="cls-70" d="M558.4,1056a137.63,137.63,0,0,1-38.59-5.41c-71.61-20.73-75.16-48.79-81-95.26C433,909.63,425,847,350.26,755.25c-45.44-55.76-117.21-79-182.86-59.28C71.21,724.91,6.69,835.41-9.61,999.15l-.73-.08c8.75-87.9,30.63-159.58,65-213,29.73-46.19,68.63-77.58,112.5-90.78,65.93-19.84,138,3.52,183.64,59.52,74.91,91.93,82.86,154.66,88.66,200.46,5.85,46.18,9.38,74.06,80.53,94.65,101.37,29.35,210.42-66.13,325.88-167.21,38.33-33.56,78-68.26,118-98.89C1024.4,737.52,1080,709.46,1134,698c58.52-12.41,116.9-5.91,178.46,19.88,162.08,67.88,279.1,109.41,368.27,130.69,97.57,23.28,165.81,23.74,214.76,1.43,39-17.77,66-50.74,82.51-100.77l.7.23c-16.6,50.24-43.72,83.35-82.91,101.21-49.11,22.38-117.5,21.93-215.23-1.39-89.21-21.29-206.27-62.83-368.38-130.72-117-49-224.27-28.71-347.81,65.81-40,30.61-79.64,65.3-118,98.86C745.25,971.78,649,1056,558.4,1056Z"/></g><g class="cls-71"><path class="cls-72" d="M546.42,1056.41a132,132,0,0,1-41-6.48c-32.43-10.5-51.16-22.58-60.73-39.15-8.89-15.4-9.26-33.28-9.72-55.91-1-47.24-2.29-111.93-83.16-208.44-46.08-55-118.71-77.36-185-57C123,702.91,84.18,734.11,54.54,779.69,20.21,832.49-1.64,903.07-10.41,989.48l-.77-.08c8.78-86.53,30.67-157.23,65.07-210.13,29.74-45.74,68.69-77,112.63-90.56,66.61-20.47,139.56,2,185.84,57.23,81,96.71,82.37,161.56,83.34,208.92.93,45,1.48,72.16,69.92,94.34C550,1063.57,598.06,1054,657,1019.13c52.39-31,106.19-77.84,163.15-127.4,43.21-37.59,87.9-76.46,133.77-109.79,61-44.27,117.1-70.53,171.65-80.26,59.61-10.62,119.15-2.14,182,26C1453.89,793,1571.4,834.18,1666.8,853.52c92,18.64,161.73,16.62,213.33-6.17,45.85-20.25,77-56.81,95.12-111.78l.74.25c-18.23,55.18-49.48,91.89-95.55,112.24-51.75,22.85-121.69,24.89-213.79,6.22-95.46-19.36-213-60.55-359.43-125.95-119.16-53.23-228-36.5-352.89,54.24-45.85,33.31-90.52,72.17-133.72,109.75-57,49.58-110.82,96.4-163.27,127.48C615.87,1044.37,579.71,1056.41,546.42,1056.41Z"/></g><g class="cls-73"><path class="cls-74" d="M533.91,1056.75a126,126,0,0,1-43-7.49c-66.88-24-64.47-52.61-60.82-95.91,4.1-48.63,9.71-115.23-76.84-215.73-46.71-54.24-120.18-75.7-187.18-54.69C69.8,713.15,5.17,821.35-11.2,979.81l-.81-.08c8.8-85.16,30.7-154.89,65.1-207.25C82.84,727.2,121.83,696,165.85,682.16c67.31-21.12,141.12.44,188,54.93,86.77,100.75,81.14,167.55,77,216.32-3.62,42.94-6,71.3,60.29,95.08,42.75,15.35,89.11,7.08,145.87-26,50.63-29.51,103.07-75,158.58-123.08,47.57-41.23,96.75-83.87,148.17-119.32,61.34-42.29,118-66.74,173.2-74.77,60.69-8.82,121.4,1.66,185.6,32.05,257.43,121.85,445.54,158.95,559.11,110.29,53.52-22.94,90.79-65.25,110.77-125.75l.78.25c-20.06,60.74-57.48,103.21-111.23,126.24q-48.52,20.8-115.06,20.8c-111.47,0-260.33-43.82-444.72-131.1-121.42-57.47-231.83-44.31-358,42.66C892.92,816.17,843.75,858.8,796.2,900c-55.54,48.15-108,93.62-158.7,123.18C598.9,1045.69,565.08,1056.75,533.91,1056.75Z"/></g><g class="cls-75"><path class="cls-76" d="M521.18,1057.1a120.68,120.68,0,0,1-44.68-8.51c-30.57-12-47-25.12-53.37-42.4-5.82-15.86-2.42-34.09,1.52-55.19,9.31-49.92,22.06-118.3-69.86-222.2a179.84,179.84,0,0,0-189.35-52.39C69.09,707.24,4.41,814.3-12,970.14l-.85-.09C-4,886.26,17.89,817.5,52.3,765.68c29.76-44.82,68.79-76,112.88-90.08a180.67,180.67,0,0,1,190.25,52.64c92.2,104.21,79.4,172.82,70.06,222.92-8,42.88-13.28,71.2,51.33,96.63,41.34,16.28,86.16,9.17,141-22.36C666.91,997.23,718.11,952.92,772.3,906c51.51-44.58,104.77-90.69,161.52-127.78,61.67-40.32,118.82-63,174.71-69.32,61.79-7,123.68,5.5,189.21,38.18,126.74,63.23,239.13,103.13,334,118.59,82.86,13.5,153.17,8.56,209-14.69,62.1-25.85,106.72-75.22,129-142.75l.81.26c-22.38,67.78-67.16,117.33-129.5,143.28-56,23.31-126.44,28.27-209.46,14.74-95-15.47-207.46-55.4-334.29-118.66-123.76-61.74-235.74-52.15-363.07,31.08C877.59,816,824.35,862.08,772.86,906.65c-54.23,46.94-105.45,91.28-154.59,119.52C582.22,1046.89,550.47,1057.1,521.18,1057.1Z"/></g><g class="cls-77"><path class="cls-78" d="M508.25,1057.48a115.71,115.71,0,0,1-46.18-9.57c-64-27.43-55.33-57.82-43.33-99.88,14.59-51.17,34.58-121.24-62.44-228-47.92-52.75-123.1-72.42-191.53-50.1C68.37,701.33,3.65,807.24-12.8,960.47l-.89-.09C-4.84,878,17.09,810.16,51.49,758.88c29.77-44.38,68.85-75.44,113-89.84,68.77-22.43,144.32-2.67,192.47,50.35,97.36,107.16,77.29,177.51,62.64,228.88-6,21-11.15,39.08-6.86,55.09,4.64,17.29,20.42,31.19,49.68,43.73,87.71,37.6,180.24-42.54,287.37-135.33,55.1-47.72,112.08-97.07,174-135.41s119.6-59.26,176.21-63.89c62.9-5.14,126,9.37,192.83,44.35C1516.6,873.9,1693.38,907.62,1818.28,857c95.55-38.71,134.23-118.41,148.78-162.48l.85.28c-11.39,34.51-28.42,65.37-50.6,91.73a250.28,250.28,0,0,1-98.7,71.3c-57.18,23.16-126.6,28.54-206.33,16-92.74-14.6-200.36-53.71-319.86-116.24-126.19-66-239.74-60-368.16,19.5-61.86,38.31-118.81,87.63-173.88,135.33-53,45.93-103.12,89.3-150.84,116.39C565.76,1048,535.87,1057.47,508.25,1057.48Z"/></g><g class="cls-79"><path class="cls-80" d="M495.24,1057.83a111.61,111.61,0,0,1-47.61-10.59c-63-29.24-51.3-60-35.08-102.71,19.91-52.36,47.17-124.06-54.74-233.36-48.51-52-124.55-70.79-193.72-47.81C67.65,695.4,2.88,800.17-13.6,950.81l-.93-.11c8.87-81.05,30.81-147.89,65.22-198.63,29.78-43.93,68.89-74.91,113.11-89.6,69.52-23.09,145.94-4.23,194.7,48.06,102.31,109.72,74.92,181.75,54.92,234.34-16,42.18-27.63,72.65,34.6,101.52,85.17,39.51,175.43-38.84,280-129.55,58.4-50.69,118.8-103.11,185.78-142.35C976,738.05,1034.09,718.91,1091.45,716c64-3.26,128.28,13.28,196.48,50.56,210.74,115.21,381.54,148.4,507.66,98.64,107.92-42.58,152.05-133.74,168.75-184.3l.88.29c-8.5,25.75-25,64.19-55.07,101.14a276.88,276.88,0,0,1-114.22,83.74c-57.66,22.75-125.86,28.09-202.71,15.89-89.91-14.27-192.78-52.82-305.74-114.58-128.68-70.35-243.8-67.9-373.24,7.94C847.33,814.49,787,866.88,728.59,917.55,643,991.82,567,1057.83,495.24,1057.83Z"/></g><g class="cls-81"><path class="cls-82" d="M481.89,1058.19a107.46,107.46,0,0,1-48.7-11.63c-28.66-14.31-42.76-29.75-44.39-48.6-1.49-17.26,7.26-35.83,17.4-57.34C431.41,887.1,466,813.8,359.32,702.36c-49.08-51.31-126-69.18-195.92-45.52C66.92,689.46,2.12,793.09-14.4,941.14l-1-.11c8.89-79.7,30.85-145.57,65.25-195.78,29.79-43.47,68.93-74.37,113.21-89.34A193.71,193.71,0,0,1,270.87,651c34.62,8.38,65.45,25.91,89.16,50.68,47.48,49.63,71.47,95.8,73.33,141.14,1.6,39-13.21,70.48-26.28,98.22-20.24,43-34.86,74,26.54,104.65,82.85,41.36,171-35.43,273.11-124.34,58.61-51,125-108.89,197-148.72,62.41-34.55,121-51.93,179.15-53.16,65.15-1.36,130.59,17.22,200.14,56.8,199.89,113.77,365,146.92,490.75,98.56,123.3-47.43,172.43-161,187.83-207.62l.92.3c-15.44,46.76-64.71,160.65-188.4,208.23-57.61,22.15-124.53,27.18-198.9,14.94-87-14.32-185.44-52.52-292.68-113.56-131.25-74.7-247.93-75.82-378.34-3.64C832.33,813.27,766,871.08,707.38,922.09,624.69,994.1,551.1,1058.18,481.89,1058.19Z"/></g><g class="cls-83"><path class="cls-84" d="M468.53,1058.66a103.68,103.68,0,0,1-49.78-12.78c-22.69-12.13-35.79-25.07-40-39.57-6.19-21.1,6.44-43.73,21.06-69.94,30.5-54.66,72.27-129.52-38.93-242.83C311.18,643,233.4,626,162.69,650.31,66.19,683.51,1.35,786-15.19,931.47l-1-.11C-7.29,853,14.66,788.11,49.06,738.43c29.79-43,69-73.83,113.3-89.08a198.94,198.94,0,0,1,109-6c35,8,66.23,25.12,90.18,49.52,49.57,50.51,73.52,97.48,73.21,143.6-.26,39.76-18.24,72-34.11,100.43-14.51,26-27,48.47-21,69.17,4.17,14.21,17.1,27,39.54,39C500,1088.16,586.16,1012.73,686,925.39c61.32-53.66,130.83-114.48,207.73-154.63,62.6-32.68,121.67-48.33,180.61-47.83,66.23.56,132.9,21.19,203.81,63.07,190.88,112.76,350.8,146.23,475.33,99.48,132.72-49.82,187.87-178.8,205.42-231.94l1,.31c-10.06,30.47-29,76.17-61.94,120.86-39,52.89-87.49,90.48-144.08,111.72Q1699.13,907,1635.49,907c-102.74,0-222.55-40.13-357.88-120.07-133.86-79.08-252.12-83.77-383.43-15.22-76.79,40.1-146.25,100.87-207.53,154.49-49.9,43.67-97,84.91-141.18,109.24C517.27,1050.93,492,1058.66,468.53,1058.66Z"/></g><g class="cls-85"><path class="cls-86" d="M455,1059.06c-17.81,0-34.55-4.63-50.72-13.86-21.94-12.51-34.36-25.72-38-40.37-5.49-22.31,9.56-45.81,27-73,18.59-29,39.66-61.92,41.76-102.09,2.43-46.53-21.37-94-72.75-145-50.23-49.9-128.89-66-200.4-40.94C65.44,677.56.58,778.89-16,921.8l-1-.12c8.93-77,30.89-140.93,65.28-190.08C78,689,117.23,658.32,161.6,642.79a204.29,204.29,0,0,1,110.28-7.16c35.48,7.59,67,24.31,91.21,48.35,51.61,51.27,75.51,99,73.06,145.81-2.11,40.45-23.26,73.47-41.92,102.6-17.3,27-32.24,50.32-26.86,72.19,3.54,14.35,15.79,27.34,37.46,39.71,36.08,20.58,75.05,18,122.65-8,43-23.53,89.23-64.21,138.16-107.28,63.87-56.2,136.25-119.91,218.05-160.11,62.75-30.84,122.3-44.76,182.06-42.54,67.34,2.49,135.21,25.18,207.48,69.37C1456.63,907.87,1612,941.88,1734.88,896.8c135-49.53,196.6-182.24,221.27-256.94l1,.33c-24.73,74.88-86.44,207.92-221.91,257.6C1612,943,1456.37,909,1272.68,796.63c-134.69-82.35-258.15-90.86-388.52-26.78-81.68,40.14-154,103.79-217.82,160-49,43.1-95.24,83.82-138.35,107.4C501.32,1051.8,477.33,1059.06,455,1059.06Z"/></g><g class="cls-87"><path class="cls-88" d="M441.41,1059.46c-18.14,0-35.13-5-51.54-14.93-21.24-12.88-33-26.35-36.06-41.16-4.81-23.62,12.77-48,33.12-76.35,21.37-29.71,45.6-63.39,49.51-104.19,4.51-47.17-19.23-95.22-72.58-146.91-50.78-49.21-130.34-64.38-202.67-38.65C64.68,671.59-.19,771.78-16.79,912.13l-1.09-.12c9-75.63,30.91-138.63,65.28-187.24,29.8-42.12,69-72.74,113.43-88.54a209.89,209.89,0,0,1,111.55-8.3c35.91,7.2,67.81,23.52,92.24,47.2,53.61,51.94,77.46,100.29,72.91,147.81-3.94,41.09-28.25,74.9-49.71,104.72-20.2,28.09-37.65,52.34-32.93,75.49,2.95,14.5,14.58,27.73,35.55,40.44,35.25,21.38,73.31,19.58,119.74-5.66,42.05-22.85,87.43-63.07,135.49-105.65C711.91,873.58,787,807.05,873.67,767c62.88-29,122.9-41.22,183.5-37.28,68.45,4.46,137.52,29.22,211.16,75.71C1445.51,917.34,1596.81,952,1718,908.56c73.56-26.38,174.1-96.78,235.4-282.37l1,.34c-6.64,20.1-26.84,81.27-65.88,141.09-45.75,70.12-103,117.88-170.19,142q-50.82,18.23-108.57,18.21c-99.52,0-214.07-40.58-342.08-121.41C1130.37,719.66,1005.3,707.47,874.13,768,787.6,808,712.58,874.45,646.39,933.1c-48.1,42.63-93.53,82.88-135.68,105.79C485.45,1052.62,462.65,1059.46,441.41,1059.46Z"/></g><g class="cls-89"><path class="cls-90" d="M427.68,1059.87c-18.42,0-35.64-5.35-52.25-16-20.6-13.23-31.81-26.95-34.3-41.94-4.14-25,16.06-50.44,39.46-79.91,48.62-61.21,109.12-137.4-15.22-254.9-50.55-47.78-132.92-62.38-205-36.35-56.71,20.49-155.24,83-178,271.72l-1.13-.14c9-74.28,30.93-136.32,65.28-184.39,29.79-41.68,69-72.2,113.46-88.26a215.76,215.76,0,0,1,112.85-9.45c36.35,6.8,68.61,22.73,93.29,46,55.57,52.52,79.37,101.46,72.75,149.63-5.73,41.7-33.2,76.29-57.43,106.8-23.23,29.25-43.29,54.52-39.23,79,2.43,14.66,13.48,28.12,33.79,41.17,34.5,22.16,71.69,21.07,117-3.44C534.2,1017.22,578.8,977.4,626,935.24c68.49-61.16,146.12-130.48,237.64-170.07,132.31-57.24,259.34-41.35,399.77,50,172.1,112,320,147.41,439.55,105.36,109.88-38.64,192.82-141.06,246.53-304.41l1.19-3.62,1.08.35-1.19,3.63c-9.59,29.17-29.55,89.88-68.26,151.79-48.07,76.89-108.29,128.48-179,153.33q-48.93,17.22-104,17.2c-98.29,0-211-41-336.5-122.67C1122.71,725,996,709.14,864.1,766.21,772.75,805.73,695.19,875,626.77,936.08c-47.27,42.21-91.91,82.08-133.15,104.37C469.66,1053.4,447.94,1059.86,427.68,1059.87Z"/></g><g class="cls-91"><path class="cls-92" d="M413.87,1060.26c-18.68,0-36.09-5.7-52.89-17.09-20-13.57-30.67-27.54-32.67-42.72-3.47-26.44,19.47-53,46-83.66,54-62.36,121.11-140-7.45-258.5-51.11-47.12-134.41-60.8-207.3-34C102.91,645,4.41,707.6-18.39,892.8l-1.17-.14c9-72.94,30.94-134,65.27-181.56,29.77-41.23,69-71.65,113.48-88a221.58,221.58,0,0,1,114.16-10.6c36.8,6.4,69.42,21.93,94.34,44.89,129.4,119.31,61.83,197.4,7.54,260.15-26.38,30.48-49.16,56.81-45.75,82.73,1.95,14.82,12.47,28.53,32.17,41.89,33.79,22.93,70.17,22.51,114.48-1.33,40.26-21.66,84.1-61.15,130.52-102.95,70.6-63.59,150.62-135.66,247-174.61C916.73,737.8,977.7,729,1040,736.45c70.65,8.43,142.12,37.37,218.5,88.47,168.38,112.66,313.71,148.81,432,107.45,170.24-59.54,233.62-258.66,254.45-324.09,1.16-3.66,2.17-6.82,3-9.44l1.12.37c-.86,2.61-1.87,5.77-3,9.42-10,31.56-30.94,97.21-70.91,163.2-49.55,81.83-111.55,136.22-184.27,161.66q-47.59,16.63-100.92,16.63c-97.29,0-208.5-41.53-332.08-124.22C1115,730.33,986.71,710.78,854.07,764.4,757.9,803.27,678,875.26,607.43,938.78c-46.47,41.85-90.36,81.39-130.74,103.11C453.92,1054.14,433.21,1060.26,413.87,1060.26Z"/></g><g class="cls-93"><path class="cls-94" d="M400,1060.66c-18.89,0-36.47-6.06-53.42-18.17-19.43-13.9-29.63-28.13-31.16-43.5-2.8-28,23-55.58,52.82-87.58,36.15-38.76,77.13-82.69,74.72-137.63-1.76-40.12-26.13-80.78-74.52-124.3C316.74,603,232.49,590.26,158.74,617.73,102.09,638.84,3.64,701.4-19.19,883.13l-1.2-.15c9-71.59,30.93-131.71,65.23-178.71,29.76-40.79,69-71.1,113.48-87.68a227.84,227.84,0,0,1,115.49-11.77c37.27,6,70.26,21.13,95.41,43.75,48.64,43.75,73.15,84.69,74.92,125.16,2.43,55.44-38.73,99.58-75.05,138.51-29.65,31.78-55.24,59.22-52.5,86.63,1.5,15,11.53,28.95,30.66,42.63,72.21,51.62,146.38-15.81,240.29-101.18,72.6-66,154.89-140.8,256.07-178.88,63.29-23.82,124.76-31,187.91-21.8,71.85,10.42,144.5,41.5,222.1,95,166,113.6,309.68,150.24,426.94,108.91,175.08-61.71,239.43-275,260.58-345.12,1.69-5.6,3-10,4.09-13.27l1.16.38c-1.07,3.23-2.4,7.65-4.09,13.25-10.19,33.77-31.39,104.05-72.25,174.5-50.68,87.38-114.29,145.05-189.08,171.41q-46.89,16.53-99.3,16.52c-96.47,0-206.56-42-328.74-125.57C1107.67,735.47,977.74,712.25,844,762.58c-101,38-183.16,112.72-255.68,178.64-47.69,43.36-88.88,80.8-128.46,102C438.24,1054.85,418.47,1060.66,400,1060.66Z"/></g><g class="cls-95"><path class="cls-96" d="M386.15,1061.11c-18.29,0-36.21-5.9-54-19.31-18.92-14.21-28.65-28.7-29.76-44.27-2.11-29.53,26.59-58.32,59.83-91.65C402,866,447.09,820.69,445.22,764.5c-1.33-40-26-80.54-75.3-123.84C317.7,594.84,232.49,583,157.86,611.24,101.25,632.64,2.86,695.18-20,873.47l-1.25-.16c9-70.25,30.94-129.42,65.19-175.88,29.74-40.34,69-70.55,113.46-87.37a234.21,234.21,0,0,1,116.84-13c37.73,5.6,71.1,20.34,96.49,42.62,49.61,43.53,74.38,84.34,75.73,124.74,1.89,56.73-43.43,102.19-83.42,142.3-33,33.12-61.53,61.72-59.47,90.68,1.09,15.19,10.66,29.37,29.27,43.36,70.81,53.22,143.63-13.64,235.82-98.29,74.49-68.4,158.92-145.93,264.91-182.93C897,737.44,958.92,732,1023,742.94c72.92,12.45,146.77,45.63,225.77,101.44,164,115.1,306.23,152.45,422.68,111C1791.34,912.69,1881,788.71,1938,586.87c1.9-6.75,3.41-12.08,4.49-15.37l1.2.39c-1.08,3.27-2.58,8.59-4.48,15.32-10.15,36-31.28,110.82-73,186.4C1814.4,867.55,1749,929.1,1671.82,956.56c-116.86,41.6-259.46,4.2-423.82-111.15-148.13-104.65-279.68-131.54-414-84.65C728.26,797.69,643.93,875.12,569.53,943.43,500,1007.31,441.37,1061.11,386.15,1061.11Z"/></g><g class="cls-97"><path class="cls-98" d="M372,1061.46c-18.42,0-36.44-6.2-54.37-20.34-18.44-14.53-27.75-29.27-28.46-45.06-1.39-31.15,30.33-61.14,67.07-95.86,43.47-41.09,92.73-87.67,91.32-145.05-1-39.93-25.89-80.26-76.16-123.3-52.77-45.18-139-56.08-214.49-27.1C100.38,626.45,2.09,689-20.78,863.8l-1.29-.17c9-68.91,30.93-127.13,65.14-173,29.71-39.88,68.93-70,113.41-87,76-29.14,162.67-18.16,215.8,27.32,50.56,43.29,75.62,83.94,76.61,124.26,1.43,58-48.07,104.74-91.73,146-35,33.07-68,64.3-66.66,94.86.69,15.39,9.84,29.82,28,44.1,69.51,54.79,141-11.59,231.58-95.63,76.29-70.79,162.75-151,273.53-186.76,63.48-20.47,125.89-24.23,190.82-11.5,74,14.49,149,49.79,229.43,107.91,162.55,116.82,303.71,154.88,419.56,113.1,124-44.72,215.52-177.05,272-393.32,2-7.6,3.42-13.09,4.41-16.07l1.23.4c-1,2.94-2.4,8.42-4.38,16-9.16,35.08-30.61,117.23-73,198.4-52.88,101.19-120.1,167.07-199.79,195.81a283.19,283.19,0,0,1-96.68,16.5c-95.36,0-203.9-43.39-324.08-129.77C1094.1,747.52,957,716.05,824,759c-110.51,35.63-196.86,115.77-273,186.48C483.1,1008.37,425.9,1061.46,372,1061.46Z"/></g><g class="cls-99"><path class="cls-100" d="M357.85,1061.8c-18.52,0-36.63-6.5-54.63-21.36s-26.9-29.85-27.23-45.86c-.67-32.82,35.85-65.55,74.51-100.2,47.13-42.24,100.55-90.12,99.53-148.64-.69-39.81-25.9-80-77.08-122.7-53.34-44.56-140.53-54.51-217-24.77-56.49,22-154.67,84.44-177.56,255.86l-1.33-.18c9-67.57,30.92-124.83,65.07-170.21C71.84,644.31,111,614.32,155.5,597c76.87-29.91,164.61-19.87,218.3,25,51.5,43,76.87,83.48,77.57,123.71,1,59.13-52.63,107.23-100,149.66-38.42,34.44-74.72,67-74.06,99.17.32,15.6,9.06,30.27,26.74,44.86,68.26,56.33,138.56-9.64,227.55-93.17,37.33-35,79.64-74.74,126.15-109.13,53.34-39.43,104.3-66,155.79-81.26,63.56-18.83,126.46-20.92,192.28-6.4,74,16.33,152.38,54.82,233.08,114.4,161.53,118.74,301.95,157.52,417.36,115.25,88.28-32.34,208-131.36,276.84-419.44,1.88-7.86,3.12-13.06,3.93-15.51l1.27.42c-.79,2.4-2.1,7.85-3.9,15.4-8.81,36.84-29.43,123.09-72.4,210.31-53.82,109.21-122.88,179.89-205.28,210.07a276.84,276.84,0,0,1-96,16.64c-95,0-203.08-44.16-322.66-132.07C1086.28,752.81,947.53,717.56,813.94,757.13c-115.26,34.14-203.53,117-281.41,190.09C466.35,1009.34,410.46,1061.8,357.85,1061.8Z"/></g><g class="cls-101"><path class="cls-102" d="M343.61,1062.13c-18.6,0-36.76-6.79-54.84-22.37-17.57-15.16-26.1-30.43-26.06-46.68.08-34.52,40-68.58,82.16-104.63,50.79-43.39,108.36-92.56,107.67-152.16-.45-39.69-26-79.62-78.08-122.06-53.91-43.94-142.11-53-219.48-22.43C98.57,614.05.53,676.46-22.38,844.46l-1.37-.18c9-66.24,30.9-122.56,65-167.39a264.55,264.55,0,0,1,113.23-86.37c77.83-30.7,166.58-21.6,220.86,22.64,52.42,42.72,78.13,83,78.59,123.11.7,60.25-57.13,109.64-108.16,153.23-42,35.84-81.59,69.69-81.67,103.59,0,15.82,8.33,30.74,25.58,45.62,30.83,26.59,63.79,29.07,103.71,7.82,36.58-19.46,75.24-56.18,120-98.7,38-36.11,81.1-77,128.92-112.23C697.21,795.17,750,768.48,803.54,754c134.55-36.39,275.35,2.73,430.48,119.6,160.89,120.83,300.84,160.33,416,117.41,85-31.68,155.67-107.46,210.17-225.23,43.34-93.65,63.43-186.58,71-221.56,1.55-7.18,2.58-11.93,3.17-13.72l1.31.43c-.57,1.73-1.59,6.44-3.13,13.58-7.57,35-27.68,128.06-71.09,221.85-54.66,118.11-125.63,194.13-210.94,225.94a271.49,271.49,0,0,1-95.56,16.87c-94.79,0-202.55-45-321.72-134.47C1078.43,758.08,938,719,803.9,755.31c-120,32.46-214,121.76-289.56,193.52C449.71,1010.21,395,1062.12,343.61,1062.13Z"/></g><g class="cls-103"><path class="cls-104" d="M329.42,1062.54c-19.6,0-37.67-7.8-55.09-23.47-17.19-15.46-25.36-31-25-47.49.86-36.28,44.16-71.69,90-109.18,54.45-44.52,116.16-95,115.74-155.6C454.84,687.24,429,647.54,376,605.41c-54.49-43.32-143.72-51.39-222-20.07C97.63,607.85-.26,670.2-23.18,834.8l-1.4-.2c9-64.9,30.87-120.27,64.89-164.56a268.74,268.74,0,0,1,113.1-86c78.78-31.5,168.58-23.35,223.45,20.28,53.34,42.41,79.4,82.48,79.67,122.49.42,61.29-61.57,112-116.26,156.7-45.59,37.28-88.65,72.5-89.49,108.13-.38,16,7.63,31.23,24.5,46.4,30.33,27.28,62.7,30.28,101.89,9.42,35.94-19.13,74.06-55.77,118.19-98.2C572.5,875.08,668.5,782.78,793.53,752.12c135-33.12,277.52,9.8,435.58,131.19,160.61,123.09,300.35,163.31,415.35,119.56C1826.24,933.69,1901,675.35,1929.38,527.5c1.15-6,1.84-9.59,2.21-10.69l1.35.44c-.34,1-1.06,4.8-2.16,10.52-6.24,32.51-25.24,131.43-68.9,232.45-24.73,57.23-53.49,106-85.48,144.89-39,47.38-83.17,80.72-131.44,99.08-115.48,44-255.68,3.65-416.71-119.76C1070.55,763.32,928.46,720.49,793.87,753.5,669.21,784.07,573.36,876.22,496.35,950.26c-44.21,42.5-82.39,79.21-118.51,98.44C360.53,1057.91,344.52,1062.53,329.42,1062.54Z"/></g><g class="cls-105"><path class="cls-106" d="M315.15,1062.84c-19.67,0-37.79-8.12-55.26-24.45C243.07,1022.6,235.26,1006.78,236,990c1.68-38.1,48.51-74.9,98.09-113.86,29.87-23.47,60.75-47.74,84.28-74,26.59-29.65,39.47-57.42,39.39-84.91-.13-39.41-26.38-78.88-80.27-120.68-55.06-42.71-145.35-49.83-224.64-17.71C96.65,601.66-1,663.92-24,825.13l-1.44-.2c9-63.58,30.83-118,64.77-161.73a273,273,0,0,1,113-85.66c39.72-16.09,82.57-22.68,123.92-19,39.66,3.49,75.95,16.61,102.17,37,54.26,42.09,80.7,81.94,80.83,121.83.09,27.86-12.92,56-39.76,85.88C395.84,829.49,364.91,853.8,335,877.3c-49.32,38.75-95.89,75.35-97.54,112.79-.72,16.3,6.94,31.75,23.43,47.24,29.88,27.94,61.73,31.4,100.22,10.9,35.35-18.83,72.94-55.43,116.45-97.8,78.52-76.45,176.23-171.59,306-200.18,63.89-14.08,128.26-11.19,196.78,8.82,76.9,22.45,159,67.53,243.92,134,160.73,125.58,300.56,166.49,415.6,121.6,91.86-35.85,166.78-124.94,222.67-264.8,19.89-49.77,47.36-131.88,65.26-240.39.69-4.16,1-5.86,1.12-6.32l1.39.46c-.12.36-.52,2.77-1.07,6.09-17.92,108.65-45.42,190.87-65.34,240.71-24.89,62.26-54.13,115.32-86.93,157.69-40.22,51.94-86.16,88.25-136.57,107.92a262.07,262.07,0,0,1-96,17.74c-94.62,0-202.14-46.67-321-139.55C1062.64,768.53,918.88,721.92,783.83,751.68,654.51,780.18,557,875.16,478.58,951.48c-43.6,42.45-81.25,79.11-116.79,98C345.15,1058.38,329.72,1062.84,315.15,1062.84Z"/></g><path class="cls-107" d="M300.84,1063.23c-19.75,0-37.9-8.47-55.39-25.52-16.5-16.09-24-32.17-22.95-49.16C225,948.64,275.41,910.42,328.8,870c31.8-24.09,64.68-49,89.68-75.8,28.24-30.25,41.95-58.53,41.94-86.43,0-39.27-26.64-78.5-81.41-119.94-55.66-42.12-147-48.28-227.3-15.33-56.07,23-153.55,85.17-176.48,243l-1.49-.22c9.05-62.26,30.8-115.72,64.64-158.9a277.2,277.2,0,0,1,112.76-85.28c40.16-16.48,83.53-23.5,125.41-20.29,40.19,3.06,76.89,15.78,103.37,35.81,55.16,41.74,82,81.37,82,121.13,0,28.31-13.84,56.92-42.34,87.46-25.09,26.89-58,51.84-89.87,76C276.6,911.41,226.43,949.42,224,988.64c-1,16.53,6.34,32.23,22.5,48,29.41,28.67,60.72,32.63,98.53,12.46,34.79-18.56,71.88-55.14,114.83-97.51,74.42-73.41,167-164.78,288.94-197.46,66.9-17.94,134.74-16.8,207.38,3.47,82.45,23,171,71.85,263.14,145.18,162.29,129.14,303.24,170.39,418.91,122.6,122.5-50.6,194.25-193.55,232.86-304.55,41.87-120.35,54.89-230.11,55-231.21l1.49.17c-.13,1.1-13.17,111-55.09,231.53-24.63,70.8-54.26,131.35-88.07,180-42.3,60.82-91.3,103-145.64,125.49a257.55,257.55,0,0,1-99.26,19.37c-94.65,0-202.21-47.54-321.15-142.19C1045,766,891.48,717.42,749.17,755.57c-121.51,32.58-214,123.79-288.27,197.08-43,42.45-80.19,79.1-115.17,97.76C329.73,1058.94,314.88,1063.23,300.84,1063.23Z"/></g><rect class="cls-43" x="-0.16" y="0.36" width="1920" height="1080"/></g></g></g></svg>