<svg width="246" height="46" viewBox="0 0 246 46" fill="none" xmlns="http://www.w3.org/2000/svg">
<path d="M27.8906 36.2109H12.4805L9.55078 45H0.205078L16.084 2.34375H24.2285L40.1953 45H30.8496L27.8906 36.2109ZM14.8535 29.0918H25.5176L20.1562 13.125L14.8535 29.0918ZM72.1875 29.4434C72.1875 34.5215 71.1035 38.4863 68.9355 41.3379C66.7676 44.1699 63.7402 45.5859 59.8535 45.5859C56.416 45.5859 53.6719 44.2676 51.6211 41.6309L51.2402 45H43.623V0H52.0898V16.1426C54.043 13.8574 56.6113 12.7148 59.7949 12.7148C63.6621 12.7148 66.6895 14.1406 68.877 16.9922C71.084 19.8242 72.1875 23.8184 72.1875 28.9746V29.4434ZM63.7207 28.8281C63.7207 25.625 63.2129 23.291 62.1973 21.8262C61.1816 20.3418 59.668 19.5996 57.6562 19.5996C54.9609 19.5996 53.1055 20.7031 52.0898 22.9102V35.4199C53.125 37.6465 55 38.7598 57.7148 38.7598C60.4492 38.7598 62.2461 37.4121 63.1055 34.7168C63.5156 33.4277 63.7207 31.4648 63.7207 28.8281ZM76.1133 28.8574C76.1133 25.7129 76.7188 22.9102 77.9297 20.4492C79.1406 17.9883 80.8789 16.084 83.1445 14.7363C85.4297 13.3887 88.0762 12.7148 91.084 12.7148C95.3613 12.7148 98.8477 14.0234 101.543 16.6406C104.258 19.2578 105.771 22.8125 106.084 27.3047L106.143 29.4727C106.143 34.3359 104.785 38.2422 102.07 41.1914C99.3555 44.1211 95.7129 45.5859 91.1426 45.5859C86.5723 45.5859 82.9199 44.1211 80.1855 41.1914C77.4707 38.2617 76.1133 34.2773 76.1133 29.2383V28.8574ZM84.5801 29.4727C84.5801 32.4805 85.1465 34.7852 86.2793 36.3867C87.4121 37.9688 89.0332 38.7598 91.1426 38.7598C93.1934 38.7598 94.7949 37.9785 95.9473 36.416C97.0996 34.834 97.6758 32.3145 97.6758 28.8574C97.6758 25.9082 97.0996 23.623 95.9473 22.002C94.7949 20.3809 93.1738 19.5703 91.084 19.5703C89.0137 19.5703 87.4121 20.3809 86.2793 22.002C85.1465 23.6035 84.5801 26.0938 84.5801 29.4727ZM130.342 41.7773C128.252 44.3164 125.361 45.5859 121.67 45.5859C118.271 45.5859 115.674 44.6094 113.877 42.6562C112.1 40.7031 111.191 37.8418 111.152 34.0723V13.3008H119.619V33.7793C119.619 37.0801 121.123 38.7305 124.131 38.7305C127.002 38.7305 128.975 37.7344 130.049 35.7422V13.3008H138.545V45H130.576L130.342 41.7773ZM155.068 5.50781V13.3008H160.488V19.5117H155.068V35.332C155.068 36.5039 155.293 37.3438 155.742 37.8516C156.191 38.3594 157.051 38.6133 158.32 38.6133C159.258 38.6133 160.088 38.5449 160.811 38.4082V44.8242C159.15 45.332 157.441 45.5859 155.684 45.5859C149.746 45.5859 146.719 42.5879 146.602 36.5918V19.5117H141.973V13.3008H146.602V5.50781H155.068ZM212.988 2.34375V30.4395C212.988 35.1074 211.523 38.7988 208.594 41.5137C205.684 44.2285 201.699 45.5859 196.641 45.5859C191.66 45.5859 187.705 44.2676 184.775 41.6309C181.846 38.9941 180.352 35.3711 180.293 30.7617V2.34375H189.082V30.498C189.082 33.291 189.746 35.332 191.074 36.6211C192.422 37.8906 194.277 38.5254 196.641 38.5254C201.582 38.5254 204.092 35.9277 204.17 30.7324V2.34375H212.988ZM236.807 36.2402C236.807 35.2051 236.289 34.3945 235.254 33.8086C234.238 33.2031 232.598 32.666 230.332 32.1973C222.793 30.6152 219.023 27.4121 219.023 22.5879C219.023 19.7754 220.186 17.4316 222.51 15.5566C224.854 13.6621 227.91 12.7148 231.68 12.7148C235.703 12.7148 238.916 13.6621 241.318 15.5566C243.74 17.4512 244.951 19.9121 244.951 22.9395H236.484C236.484 21.7285 236.094 20.7324 235.312 19.9512C234.531 19.1504 233.311 18.75 231.65 18.75C230.225 18.75 229.121 19.0723 228.34 19.7168C227.559 20.3613 227.168 21.1816 227.168 22.1777C227.168 23.1152 227.607 23.877 228.486 24.4629C229.385 25.0293 230.889 25.5273 232.998 25.957C235.107 26.3672 236.885 26.8359 238.33 27.3633C242.803 29.0039 245.039 31.8457 245.039 35.8887C245.039 38.7793 243.799 41.123 241.318 42.9199C238.838 44.6973 235.635 45.5859 231.709 45.5859C229.053 45.5859 226.689 45.1172 224.619 44.1797C222.568 43.2227 220.957 41.9238 219.785 40.2832C218.613 38.623 218.027 36.8359 218.027 34.9219H226.055C226.133 36.4258 226.689 37.5781 227.725 38.3789C228.76 39.1797 230.146 39.5801 231.885 39.5801C233.506 39.5801 234.727 39.2773 235.547 38.6719C236.387 38.0469 236.807 37.2363 236.807 36.2402Z" fill="white"/>
</svg>
