<svg id="Layer_1" data-name="Layer 1" xmlns="http://www.w3.org/2000/svg" xmlns:xlink="http://www.w3.org/1999/xlink" viewBox="0 0 2084 2084"><defs><style>.cls-1{fill:url(#New_Gradient_Swatch_5);}.cls-2,.cls-3{opacity:0.2;}.cls-2{fill:url(#linear-gradient);}.cls-3{fill:url(#linear-gradient-2);}.cls-4{fill:url(#linear-gradient-3);}.cls-5{fill:url(#linear-gradient-4);}.cls-6{fill:url(#linear-gradient-5);}.cls-15,.cls-28,.cls-31,.cls-33,.cls-7{opacity:0.4;}.cls-7{fill:url(#linear-gradient-6);}.cls-8{fill:url(#New_Gradient_Swatch_6);}.cls-9{fill:#f2c386;}.cls-10{fill:#e0865a;}.cls-11{fill:#21343a;}.cls-12,.cls-18{fill:#36505b;}.cls-13{fill:#fff;}.cls-14{fill:#b5e2ff;}.cls-15{fill:#40444c;}.cls-16{fill:#273d44;}.cls-17{fill:url(#New_Gradient_Swatch_6-2);}.cls-18{opacity:0.3;}.cls-19{fill:#21363d;}.cls-20{fill:url(#New_Gradient_Swatch_7);}.cls-21{fill:url(#New_Gradient_Swatch_7-2);}.cls-22{fill:url(#New_Gradient_Swatch_8);}.cls-23{fill:url(#New_Gradient_Swatch_7-3);}.cls-24{fill:#1d2d33;}.cls-25{fill:url(#New_Gradient_Swatch_6-3);}.cls-26{fill:url(#linear-gradient-7);}.cls-27{clip-path:url(#clip-path);}.cls-28{fill:url(#New_Gradient_Swatch_5-4);}.cls-29{fill:url(#New_Gradient_Swatch_5-5);}.cls-30{fill:url(#New_Gradient_Swatch_5-6);}.cls-31{fill:url(#New_Gradient_Swatch_5-7);}.cls-32{fill:url(#New_Gradient_Swatch_5-8);}.cls-33{fill:url(#New_Gradient_Swatch_5-9);}</style><linearGradient id="New_Gradient_Swatch_5" x1="1599.29" y1="1464.41" x2="1491.63" y2="853.85" gradientUnits="userSpaceOnUse"><stop offset="0" stop-color="#00b2ff"/><stop offset="0.22" stop-color="#0af"/><stop offset="0.55" stop-color="#0094ff"/><stop offset="0.96" stop-color="#0071ff"/><stop offset="1" stop-color="#006dff"/></linearGradient><linearGradient id="linear-gradient" x1="83.49" y1="1044.4" x2="2019.42" y2="1044.4" gradientUnits="userSpaceOnUse"><stop offset="0" stop-color="#0059ff"/><stop offset="0.03" stop-color="#005dff"/><stop offset="0.35" stop-color="#008eff"/><stop offset="0.63" stop-color="#00b2ff"/><stop offset="0.85" stop-color="#00c8ff"/><stop offset="1" stop-color="#00d0ff"/></linearGradient><linearGradient id="linear-gradient-2" x1="1145.19" y1="1739.81" x2="1626.58" y2="1739.81" xlink:href="#linear-gradient"/><linearGradient id="linear-gradient-3" x1="64.58" y1="1448.75" x2="674.98" y2="1448.75" xlink:href="#New_Gradient_Swatch_5"/><linearGradient id="linear-gradient-4" x1="94.61" y1="1533.46" x2="679.14" y2="1533.46" xlink:href="#New_Gradient_Swatch_5"/><linearGradient id="linear-gradient-5" x1="314.86" y1="1215.22" x2="710.2" y2="1215.22" xlink:href="#New_Gradient_Swatch_5"/><linearGradient id="linear-gradient-6" x1="623.62" y1="1466.4" x2="685.93" y2="1466.4" xlink:href="#New_Gradient_Swatch_5"/><linearGradient id="New_Gradient_Swatch_6" x1="611.36" y1="623.88" x2="735.21" y2="952.54" gradientUnits="userSpaceOnUse"><stop offset="0" stop-color="#006dff"/><stop offset="1" stop-color="#00b2ff"/></linearGradient><linearGradient id="New_Gradient_Swatch_6-2" x1="851.2" y1="493.77" x2="1022.99" y2="949.69" xlink:href="#New_Gradient_Swatch_6"/><linearGradient id="New_Gradient_Swatch_7" x1="570.87" y1="681.83" x2="647.78" y2="681.83" gradientUnits="userSpaceOnUse"><stop offset="0" stop-color="#5fd6ff"/><stop offset="1" stop-color="#409bff"/></linearGradient><linearGradient id="New_Gradient_Swatch_7-2" x1="96.89" y1="423.3" x2="380.64" y2="423.3" xlink:href="#New_Gradient_Swatch_7"/><linearGradient id="New_Gradient_Swatch_8" x1="306.84" y1="543.48" x2="219.12" y2="391.54" gradientUnits="userSpaceOnUse"><stop offset="0" stop-color="#00b2ff"/><stop offset="1" stop-color="#006dff"/></linearGradient><linearGradient id="New_Gradient_Swatch_7-3" x1="152.7" y1="463.64" x2="593.97" y2="463.64" xlink:href="#New_Gradient_Swatch_7"/><linearGradient id="New_Gradient_Swatch_6-3" x1="1041.63" y1="885.14" x2="1271.22" y2="885.14" xlink:href="#New_Gradient_Swatch_6"/><linearGradient id="linear-gradient-7" x1="254.06" y1="558.85" x2="285.58" y2="380.07" gradientUnits="userSpaceOnUse"><stop offset="0.01" stop-color="#00b2ff"/><stop offset="0.27" stop-color="#00afff"/><stop offset="0.5" stop-color="#00a4ff"/><stop offset="0.71" stop-color="#0092ff"/><stop offset="0.92" stop-color="#0079ff"/><stop offset="1" stop-color="#006dff"/></linearGradient><clipPath id="clip-path"><path class="cls-1" d="M1631.32,1067.51q-5,5.92-9.78,11.34a571.83,571.83,0,0,1-56.37,55c4.94-18.15,13.17-68.47-38.85-91,0,0-35.37,35.06,27.87,100-6.4,5.14-10.23,7.93-10.35,8a512.17,512.17,0,0,0-45,36.49c7-21.74,9-53.79-24.34-78.89,0,0-41.51,25,1.69,100.68a565.36,565.36,0,0,0-46.74,54.26,648.11,648.11,0,0,0-70,116.81c-33.65,72-44.46,126.88-44.91,129.19l14.17,2.73c.11-.55,11-55.76,44-126.2,18.4-39.3,46.2-88.37,86.07-135.9,83.11,32.58,101.77-13,101.77-13-28.06-27.23-57.39-22.88-77.77-13.79a515.45,515.45,0,0,1,42.15-39.37l-1.44,3.7c87.7,36.74,107.16-10.85,107.16-10.85-29.32-28.45-60-22.42-80.47-12.53.74-.53,1.45-1.07,2.19-1.6,1.23-.9,24.07-17.52,52.73-45.54,81.69,31.33,100.11-13.67,100.11-13.67-25.35-24.6-51.74-23.42-71.63-16.25a471.59,471.59,0,0,0,30.77-38.64l-.23,3.09c94.62,9.37,99.25-41.82,99.25-41.82-1.08-.56-2.16-1.08-3.23-1.57l-1-.46c-.73-.33-1.47-.65-2.19-1l-1.16-.47c-.69-.28-1.37-.54-2-.79l-1.12-.41c-.74-.26-1.48-.5-2.21-.73l-.88-.29c-1-.31-2-.59-3-.85l-.55-.13q-1.23-.32-2.43-.57l-1-.2-1.94-.36-1.08-.17c-.63-.1-1.26-.18-1.88-.26l-1-.12-2.15-.18-.66,0c-.92-.06-1.84-.09-2.74-.11h-.73c-.67,0-1.33,0-2,0l-1,0-1.73.1-1,.08q-.87.07-1.74.18l-.86.11c-.74.1-1.49.21-2.22.33l-.31,0c-.83.15-1.66.32-2.48.5l-.72.17c-.58.13-1.15.27-1.72.42l-.85.24c-.53.14-1.06.3-1.58.46l-.82.25c-.56.18-1.12.37-1.67.57l-.64.22c-.77.28-1.53.57-2.27.88h0q-1.1.45-2.16.93l-.62.29-1.56.73-.67.34c-.51.26-1,.51-1.49.78l-.61.32c-.57.31-1.13.63-1.69.95l-.33.19c-.68.41-1.36.82-2,1.24l-.12.08c-.6.38-1.2.77-1.79,1.17l-.45.31c-.49.33-1,.66-1.44,1l-.48.34-1.42,1.06-.37.27c-1.21.93-2.37,1.86-3.49,2.82,0,0,0,0-.07.05l-1.55,1.35-.28.25c-.45.4-.89.81-1.32,1.21l-.27.25c-.47.43-.92.87-1.37,1.3l-.08.08a318.64,318.64,0,0,0,22.76-45.26l.12,2.59c95.06-2.3,93.38-53.68,93.38-53.68-47.26-17.23-75.1,14.13-87,33a219.45,219.45,0,0,0,9.16-41.92c39.56-70.44,18.59-116.2-8.85-101.16-20.37,11.16-11.72,62.62-4.7,92.5h-.1c-1.83,24.39-8.65,48-18.28,70.15-2-22.73-12.56-60.4-60.06-67.76,0,0-25,42,50,88.51a377.31,377.31,0,0,1-33.14,51.24c-1.38-22.32-10.83-62.79-60.26-70.45Z"/></clipPath><linearGradient id="New_Gradient_Swatch_5-4" x1="1376.63" y1="1550.66" x2="1325.03" y2="1258.02" xlink:href="#New_Gradient_Swatch_5"/><linearGradient id="New_Gradient_Swatch_5-5" x1="1609.69" y1="1590.1" x2="1581.55" y2="1430.53" xlink:href="#New_Gradient_Swatch_5"/><linearGradient id="New_Gradient_Swatch_5-6" x1="1563.59" y1="1787.51" x2="1511.51" y2="1492.18" xlink:href="#New_Gradient_Swatch_5"/><linearGradient id="New_Gradient_Swatch_5-7" x1="1387.49" y1="1631.58" x2="1371.54" y2="1541.09" xlink:href="#New_Gradient_Swatch_5"/><linearGradient id="New_Gradient_Swatch_5-8" x1="1591.24" y1="1595.61" x2="1496.55" y2="1058.55" xlink:href="#New_Gradient_Swatch_5"/><linearGradient id="New_Gradient_Swatch_5-9" x1="1375.78" y1="1645.24" x2="1323.56" y2="1349.1" xlink:href="#New_Gradient_Swatch_5"/></defs><path class="cls-2" d="M151.76,1257.75s-273.23,587.15,273.53,624.68c642.9,44.13,915.36-383.36,1141.08-264s912.36-1154.81-31.14-1392C882,62.24,860.27,813,390.17,1009.09,390.17,1009.09,224.41,1099.28,151.76,1257.75Z"/><path class="cls-3" d="M1196.79,1750s200.52-156.58,349.45-105.88c0,0,85.3,30,80.11,116.7s-72.56,42.42-167.36,35.23-212.7,99.3-310.92,20C1148.07,1816.05,1127.41,1787,1196.79,1750Z"/><path class="cls-4" d="M675,1570.41s-176.55-346.92-535.9-309.72l-74.5,12.52s382.92-18.68,608.13,366.4Z"/><path class="cls-5" d="M679.12,1647.58l0,.18c-91.8-98.79-222.59-160.34-357.23-168.1-26.28-1.51-52.73-1.06-78.77,2.78-51.71,7.63-100.45,28.33-148.53,48.85,6.41-2.74,13.09-10.82,18.7-15.13q9.94-7.64,20.27-14.73a480.93,480.93,0,0,1,135.14-64.49c69.51-20.63,141.25-24.2,211.8-6.07q4.8,1.25,9.57,2.59c60.39,17.09,116.5,47.56,166.76,85.16,2.38,1.78,4.8,3.63,6.35,6.17,1.81,2.94,2.25,6.5,2.65,9.93Q672.49,1591.15,679.12,1647.58Z"/><path class="cls-6" d="M314.86,1049.65a531.64,531.64,0,0,0,106,93.35c-4.31-2.88-10.07-4.53-14.74-6.84-5-2.49-9.94-5.12-14.78-7.9a217.47,217.47,0,0,1-27.68-18.72c-16.77-13.45-34.41-29.1-39.81-50.08-6.95-27-8.89-52.78-3.92-78.85a497.73,497.73,0,0,1,22.83-80.86q5-13.37,10.73-26.43a511.16,511.16,0,0,1,23.7-47.27q3.27-5.76,6.68-11.42c1.23-2,5.43-8.31,4.95-2.28-.37,4.49-2.27,9.26-3.14,13.7q-1.37,6.88-2.29,13.86a187.43,187.43,0,0,0,.16,52.52c7.23,47.91,34.82,90.39,66.48,127.07,52.4,60.7,117.64,110.15,164.38,175.32,43.16,60.16,68.78,131.62,82.12,204.46s14.84,147.33,13.11,221.36c-51.9-121.35-184.6-187.26-258.69-296.47a173.21,173.21,0,0,0,109.1-7.24c-62.07-6.57-125.69-26.4-168.88-71.45C341.92,1194.12,327.31,1119.69,314.86,1049.65Z"/><path class="cls-7" d="M623.62,1273s46.42,192.76,1.91,278.07c0,0,55.29,66.5,57.53,108.68C683.06,1659.77,705.72,1425,623.62,1273Z"/><path class="cls-8" d="M688.68,686.13s-33.45,0-36.28,108.58l-19.86,211.36s117.91,7.09,56.14,155.49c0,0,79.33-97,81-263.23L788,760.2Z"/><path class="cls-9" d="M639.45,980.61S512.68,834.72,475.86,812.06l-47.79,63.08s155.24,336.32,260.61,286.42C688.68,1161.56,769.7,1077.67,639.45,980.61Z"/><path class="cls-10" d="M518.73,849.72s-28.43,85.95-41.59,119.46l-36.92-57.13S419.68,878.93,432,880c0,0,30.29,36.94,46-12.43,0,0,30.1-4.34,26.27-31.84Z"/><path class="cls-11" d="M614.5,1585.26s0,80.32,66,89.45c43,6,449.82,65,449.82,65s109.78,6,146.37-115.38c48.6-161.16,252.1-815.74,252.1-815.74s10.71-81.32-31.41-99.06Z"/><path class="cls-12" d="M1245.25,1630.8c-12.39,34.25-50,62-84.11,62l-503.44-62c-34.06,0-51.62-27.76-39.22-62L910.2,762.89c12.39-34.25,50-62,84.11-62H1469c34.06,0,51.62,27.76,39.22,62Z"/><path class="cls-13" d="M886.34,1639.74a32.44,32.44,0,0,1-3.57-.2l-22.83-2.62c-8-.93-14.56-4.86-18.43-11.08-4-6.43-4.59-14.39-1.7-22.42l9-24.91c5.13-14.23,20.38-25,35.48-25a30.15,30.15,0,0,1,3.57.2l22.83,2.62c8,.92,14.57,4.85,18.43,11.07,4,6.43,4.59,14.39,1.7,22.42l-9,24.92C916.7,1629,901.44,1639.74,886.34,1639.74ZM884.28,1562c-11.52,0-23.61,8.51-27.53,19.36l-9,24.92c-2,5.54-1.67,10.9.93,15.09,2.47,4,6.8,6.51,12.2,7.13l22.84,2.63a24.57,24.57,0,0,0,2.6.14c11.52,0,23.62-8.5,27.53-19.36l9-24.92c2-5.54,1.67-10.9-.93-15.09-2.47-4-6.8-6.51-12.2-7.13l-22.83-2.62A22.45,22.45,0,0,0,884.28,1562Z"/><path class="cls-14" d="M1230.66,1516.35c-10.22,26.54-42.07,48.37-71.13,48.76L729.33,1523c-29.05.38-44.32-20.82-34.1-47.37L935.9,786.94c10.22-26.54,42.07,7.79,71.13,7.4l405,2.47c29.06-.39,44.32,20.82,34.1,47.37Z"/><path class="cls-15" d="M852.12,1226s-45.54,118.08,61.07,136.53c145,25.1,262.88-26.94,291.93,20.2s106.67,28.46,120-15.43l83.42-275.37-22.94-15.58-109.75,17.33s-51.74,43.27-98.87,29.8Z"/><path class="cls-16" d="M867.08,1130.47S810,1276.92,913.19,1289c84.54,9.88,248.52,53.31,275.67-92.15l-25.32-120.52Z"/><path class="cls-17" d="M867.08,666S647.68,631,676,738.68s169.32,241,185.79,361.43c0,0-12.2,119,175.88,99.38,189.78-19.76,122.3-143.92,116.1-346.73,0,0-1.89-78.2,28.32-144.29s-39-64.17-193.71-51.92Z"/><path class="cls-9" d="M867.08,666S815.21,779.32,890,753.82c0,0,71.81-10,102.71-77.36,11.3-24.66,6.41-61.86-.46-108.71Z"/><path class="cls-9" d="M848.58,583.85A629,629,0,0,1,867.08,666s66.32,1.26,106.14-39.66C998,600.85,998,481.87,998,481.87Z"/><path class="cls-10" d="M848.58,583.85l11,42.57s99.21.16,135-90.91L998,512.84s-58.15-8.31-72.64-2.64S848.58,583.85,848.58,583.85Z"/><path class="cls-12" d="M867.08,248.24s-100.27-39.21-75,45.81,15.1,116.5,15.1,116.5,60.11-137.84,106-85.67Z"/><path class="cls-9" d="M825.91,357s-89.44,208.29,22.67,226.85c102.64,17,130.31-56.65,141.64-73.65,0,0,31.16,22.67,65.16-39.66,0,0,25.49-81.51-65.16-52.09,0,0,48.16-98.06-17-115C897,283.52,851.41,292.67,825.91,357Z"/><path class="cls-12" d="M1021.43,412.11s-49.71,1.73-70.21,41.41c0,0,19.06-127.58-74.31-172.79,0,0-49.67-76.48,74.31-82.15s266,97.25,107.46,241.64C1058.68,440.22,1041.31,416,1021.43,412.11Z"/><path class="cls-18" d="M679.62,698.21s34.57,162.36,90.08,205.73L764.65,971S672.36,885.14,679.62,698.21Z"/><path class="cls-19" d="M599.47,586.33s30.62,81.12-69.69,127.54c-87.23,40.37,5.51,2.68,5.51,2.68l-32.52-15.79,90-120.71Z"/><path class="cls-20" d="M632.45,626.92s32.09,19.82,3.4,73.9c0,0-34,48.07-65,33Z"/><path class="cls-21" d="M344.28,226.47s-28.54-71.25-117.6,53.43S18.87,681.72,167.31,635.18c0,0-28.14-9.62,53.28,0s123.69,0,123.69,0l36.36-23.76Z"/><path class="cls-22" d="M329.13,328s-161.82,90.12-132.3,279C196.83,607,338.87,483.1,329.13,328Z"/><path class="cls-12" d="M590.17,574.93l36.11,33.62s47.54,69.26-53.85,124l-68.1-33.06Z"/><path class="cls-23" d="M553.24,526.5s-168.54-127.85-209-300c0,0-1.59,245.21-191.58,412.43,0,0,231.34-3.72,350.07,61.86,0,0,53.51,4.35,83.2-60S553.24,526.5,553.24,526.5Z"/><path class="cls-13" d="M273,483.58c9.17-2.63,282,166.27,282.25,198.25,0,0,4.66-2.47,15.64-16,0,0-152.74-94-293.62-190.91Z"/><path class="cls-12" d="M502.77,700.76,438.25,850.55s-17.4,40.6,8,51.89c0,0,19.17,11.1,32.51-8.28,23.18-33.65,90.51-168,90.51-168Z"/><path class="cls-18" d="M1161.71,989.29s-103-51-6.17-245.43c0,0-39.38,125.77,6.17,153.35Z"/><path class="cls-10" d="M501.83,900.56s16.9-50.84,53.2-13.36l-36.3-37.48L478.8,894.16Z"/><path class="cls-9" d="M1365.21,989.29c63.7,81.32-40.12,295.77-40.12,295.77l-83.34-20.2L1253,1224.7c15.43-33.43,28.52-188.6,28.52-188.6Z"/><path class="cls-9" d="M1241.75,1264.86s-61.25,56-25.33,71.75,83,10.07,108.67-51.55v-63.29Z"/><path class="cls-9" d="M1253,1224.7s-96.17,35.25-64.12,49.07,71.08-22.14,76.25-24.54,49.6-64.79,48.71-69.5l-.9-4.71Z"/><path class="cls-9" d="M530,861.11s24.82-78.93-8.16-103.55c0,0-17,90.54-17.61,93.34S530,861.11,530,861.11Z"/><path class="cls-24" d="M859.3,309.51s-8.85-61.82-48.28-69.19c0,0,40.47-7.09,56.06,7.92,0,0-3.87,27.47,26.06,47.33C893.14,295.57,868.84,301.13,859.3,309.51Z"/><path class="cls-25" d="M1188.76,686.13s-123.6,187.48,6.71,309.29l79.52,88.74s110.44-50.62,87.14-118.74C1300,783.7,1188.76,686.13,1188.76,686.13Z"/><path class="cls-10" d="M1365.14,989.29s9,80.86-94.56,147.88l4.41-53S1343.3,1054.93,1365.14,989.29Z"/><path class="cls-13" d="M308.88,403.51l-14.31,36.71L539,626.92l39.18,29.46L586,640.77Z"/><path class="cls-26" d="M315,385.27s-91.74,55-85.29,169.29C229.75,554.56,290.81,469.91,315,385.27Z"/><path class="cls-9" d="M428.6,792.73s32.18-44.14,67.08,0c0,0,34.11,88.27-33.54,72.48,0,0-61.48-4.1-12.22,61.85C449.92,927.06,385,849.72,428.6,792.73Z"/><path class="cls-10" d="M867.08,666S843.47,767.86,902.62,751C902.62,751,809.44,796.6,867.08,666Z"/><path class="cls-13" d="M1188.76,686.13s-88.88,175-20.53,278C1168.23,964.11,1074,868.26,1188.76,686.13Z"/><path class="cls-13" d="M882.71,757.56s78.51-2.24,116.7-75.73c0,0,5.51-15.82,20.68-19.18,27-6,125.19-14.95,141.62-7.92,0,0-32.72-14.34-163.67,1.06C998,655.79,982,740.14,882.71,757.56Z"/><polygon class="cls-11" points="502.77 700.76 569.31 726.13 545.4 773.11 502.77 700.76"/><path class="cls-1" d="M1797.24,926.67c-47.26-17.23-75.1,14.13-87,33a219.45,219.45,0,0,0,9.16-41.92c39.56-70.44,18.59-116.2-8.85-101.16-20.37,11.16-11.72,62.62-4.7,92.5h-.1c-1.83,24.39-8.65,48-18.28,70.15-2-22.73-12.56-60.4-60.06-67.76,0,0-25,42,50,88.51a377.31,377.31,0,0,1-33.14,51.24c-1.38-22.32-10.83-62.79-60.26-70.45,0,0-24.32,41,47.24,86.75q-5,5.92-9.78,11.34a571.83,571.83,0,0,1-56.37,55c4.94-18.15,13.17-68.47-38.85-91,0,0-35.37,35.06,27.87,100-6.4,5.14-10.23,7.93-10.35,8a512.17,512.17,0,0,0-45,36.49c7-21.74,9-53.79-24.34-78.89,0,0-41.51,25,1.69,100.68a565.36,565.36,0,0,0-46.74,54.26,648.11,648.11,0,0,0-70,116.81c-33.65,72-44.46,126.88-44.91,129.19l14.17,2.73c.11-.55,11-55.76,44-126.2,18.4-39.3,46.2-88.37,86.07-135.9,83.11,32.58,101.77-13,101.77-13-28.06-27.23-57.39-22.88-77.77-13.79a515.45,515.45,0,0,1,42.15-39.37l-1.44,3.7c87.7,36.74,107.16-10.85,107.16-10.85-29.32-28.45-60-22.42-80.47-12.53.74-.53,1.45-1.07,2.19-1.6,1.23-.9,24.07-17.52,52.73-45.54,81.69,31.33,100.11-13.67,100.11-13.67-25.35-24.6-51.74-23.42-71.63-16.25a471.59,471.59,0,0,0,30.77-38.64l-.23,3.09c94.62,9.37,99.25-41.82,99.25-41.82-1.08-.56-2.16-1.08-3.23-1.57l-1-.46c-.73-.33-1.47-.65-2.19-1l-1.16-.47c-.69-.28-1.37-.54-2-.79l-1.12-.41c-.74-.26-1.48-.5-2.21-.73l-.88-.29c-1-.31-2-.59-3-.85l-.55-.13q-1.23-.32-2.43-.57l-1-.2-1.94-.36-1.08-.17c-.63-.1-1.26-.18-1.88-.26l-1-.12-2.15-.18-.66,0c-.92-.06-1.84-.09-2.74-.11h-.73c-.67,0-1.33,0-2,0l-1,0-1.73.1-1,.08q-.87.07-1.74.18l-.86.11c-.74.1-1.49.21-2.22.33l-.31,0c-.83.15-1.66.32-2.48.5l-.72.17c-.58.13-1.15.27-1.72.42l-.85.24c-.53.14-1.06.3-1.58.46l-.82.25c-.56.18-1.12.37-1.67.57l-.64.22c-.77.28-1.53.57-2.27.88h0q-1.1.45-2.16.93l-.62.29-1.56.73-.67.34c-.51.26-1,.51-1.49.78l-.61.32c-.57.31-1.13.63-1.69.95l-.33.19c-.68.41-1.36.82-2,1.24l-.12.08c-.6.38-1.2.77-1.79,1.17l-.45.31c-.49.33-1,.66-1.44,1l-.48.34-1.42,1.06-.37.27c-1.21.93-2.37,1.86-3.49,2.82,0,0,0,0-.07.05l-1.55,1.35-.28.25c-.45.4-.89.81-1.32,1.21l-.27.25c-.47.43-.92.87-1.37,1.3l-.08.08a318.64,318.64,0,0,0,22.76-45.26l.12,2.59C1798.92,978.05,1797.24,926.67,1797.24,926.67Z"/><path class="cls-1" d="M1631.32,1067.51q-5,5.92-9.78,11.34a571.83,571.83,0,0,1-56.37,55c4.94-18.15,13.17-68.47-38.85-91,0,0-35.37,35.06,27.87,100-6.4,5.14-10.23,7.93-10.35,8a512.17,512.17,0,0,0-45,36.49c7-21.74,9-53.79-24.34-78.89,0,0-41.51,25,1.69,100.68a565.36,565.36,0,0,0-46.74,54.26,648.11,648.11,0,0,0-70,116.81c-33.65,72-44.46,126.88-44.91,129.19l14.17,2.73c.11-.55,11-55.76,44-126.2,18.4-39.3,46.2-88.37,86.07-135.9,83.11,32.58,101.77-13,101.77-13-28.06-27.23-57.39-22.88-77.77-13.79a515.45,515.45,0,0,1,42.15-39.37l-1.44,3.7c87.7,36.74,107.16-10.85,107.16-10.85-29.32-28.45-60-22.42-80.47-12.53.74-.53,1.45-1.07,2.19-1.6,1.23-.9,24.07-17.52,52.73-45.54,81.69,31.33,100.11-13.67,100.11-13.67-25.35-24.6-51.74-23.42-71.63-16.25a471.59,471.59,0,0,0,30.77-38.64l-.23,3.09c94.62,9.37,99.25-41.82,99.25-41.82-1.08-.56-2.16-1.08-3.23-1.57l-1-.46c-.73-.33-1.47-.65-2.19-1l-1.16-.47c-.69-.28-1.37-.54-2-.79l-1.12-.41c-.74-.26-1.48-.5-2.21-.73l-.88-.29c-1-.31-2-.59-3-.85l-.55-.13q-1.23-.32-2.43-.57l-1-.2-1.94-.36-1.08-.17c-.63-.1-1.26-.18-1.88-.26l-1-.12-2.15-.18-.66,0c-.92-.06-1.84-.09-2.74-.11h-.73c-.67,0-1.33,0-2,0l-1,0-1.73.1-1,.08q-.87.07-1.74.18l-.86.11c-.74.1-1.49.21-2.22.33l-.31,0c-.83.15-1.66.32-2.48.5l-.72.17c-.58.13-1.15.27-1.72.42l-.85.24c-.53.14-1.06.3-1.58.46l-.82.25c-.56.18-1.12.37-1.67.57l-.64.22c-.77.28-1.53.57-2.27.88h0q-1.1.45-2.16.93l-.62.29-1.56.73-.67.34c-.51.26-1,.51-1.49.78l-.61.32c-.57.31-1.13.63-1.69.95l-.33.19c-.68.41-1.36.82-2,1.24l-.12.08c-.6.38-1.2.77-1.79,1.17l-.45.31c-.49.33-1,.66-1.44,1l-.48.34-1.42,1.06-.37.27c-1.21.93-2.37,1.86-3.49,2.82,0,0,0,0-.07.05l-1.55,1.35-.28.25c-.45.4-.89.81-1.32,1.21l-.27.25c-.47.43-.92.87-1.37,1.3l-.08.08a318.64,318.64,0,0,0,22.76-45.26l.12,2.59c95.06-2.3,93.38-53.68,93.38-53.68-47.26-17.23-75.1,14.13-87,33a219.45,219.45,0,0,0,9.16-41.92c39.56-70.44,18.59-116.2-8.85-101.16-20.37,11.16-11.72,62.62-4.7,92.5h-.1c-1.83,24.39-8.65,48-18.28,70.15-2-22.73-12.56-60.4-60.06-67.76,0,0-25,42,50,88.51a377.31,377.31,0,0,1-33.14,51.24c-1.38-22.32-10.83-62.79-60.26-70.45Z"/><g class="cls-27"><path class="cls-28" d="M1408.51,1243.3v118.8l-113.83,203s-26.81-108.69-9.63-115.54Z"/></g><path class="cls-29" d="M1288.19,1586.34s276.57-262.24,595.93-110.16l64.64,36s-347.18-142.71-681.16,138.79Z"/><path class="cls-30" d="M1259,1656.3l0,0c117.28-61.21,258.44-75,385.36-37.76,24.65,7.24,48.82,16.34,71.51,28.38,45.1,23.94,83.27,58.82,120.91,93.32-62.87-102.7-161.78-188-279.66-212.54-36.21-7.56-73.45-9.28-110.31-6.8-37.13,2.49-73.9,9.15-109.94,18.31q-6.75,1.71-13.48,3.55c-3,.81-7.73,1.11-9.81,3.43-2.86,3.17-4.54,9.12-6.44,13l-6.51,13.12-26,52.51-7.8,15.75-3.91,7.88C1262.12,1650,1260.46,1655.45,1259,1656.3Z"/><path class="cls-31" d="M1496.06,1519.13l-74.57,84.64s-107.67,19.83-158.52,49.77l34-95.76Z"/><path class="cls-32" d="M1809.25,1258.2a596.83,596.83,0,0,1-127.86,50.44c41.51-5.94,86.14-13.39,115.71-43.12,20.21-20.31,30.45-48.43,37.24-76.27,15.22-62.39,15.07-131.47-16.61-187.33,3.74,60.67-33.14,117.85-80.67,155.74s-105.12,60.41-160.6,85.24c-44.35,19.84-88.76,42-125.25,74.64s-66.28,72.27-92.85,113.06a769.73,769.73,0,0,0-99.29,223.58c86.09-95.33,230-111.92,333.49-188a166.79,166.79,0,0,1-96.45-42.36c57.14,13.16,120,17.9,171.85-9.43C1730.59,1381.42,1762,1310.87,1809.25,1258.2Z"/><path class="cls-33" d="M1440.46,1328.49s-106,162.64-92.88,255.93c0,0-72.8,43.24-88.69,81.43C1258.89,1665.85,1314.91,1441.84,1440.46,1328.49Z"/></svg>