<svg id="Layer_1" 
data-name="Layer 1" 
xmlns="http://www.w3.org/2000/svg" 
xmlns:xlink="http://www.w3.org/1999/xlink" 
viewBox="0 0 7680 2356">
<defs>
<style>.cls-1{fill:url(#linear-gradient);}.cls-2{fill:url(#linear-gradient-2);}
</style>
<linearGradient 
id="linear-gradient" 
x1="-0.16" 
y1="1177.47" 
x2="7680.08" 
y2="1177.47" 
gradientTransform="matrix(-1, 0, 0, 1, 7680, 0)" 
gradientUnits="userSpaceOnUse">
<stop offset="0" stop-color="rgba(0, 109, 255, 1)"/>
<stop offset="1" stop-color="rgba(0, 178, 255, 1)"/></linearGradient><linearGradient id="linear-gradient-2" x1="2270.6" y1="829.82" x2="8135.69" y2="829.82" gradientTransform="matrix(-1, 0, 0, 1, 8134.98, 0)" gradientUnits="userSpaceOnUse"><stop offset="0" stop-color="#00b2ff" stop-opacity="0.7"/><stop offset="1" stop-color="#006dff"/>
</linearGradient></defs><path class="cls-1" d="M7680,0h.16l-.76,1583.41c-248.26,92.46-527-10.53-752.27-149.65S6495,1116.2,6242,1037.55s-579.19-18.24-695.62,218.79c-36.16,73.63-49.2,158.05-94.07,226.78C5366.21,1615,5189,1652.74,5031,1651.23c-287.07-2.73-573.84-95.46-857.23-49.78C3796.51,1662.26,3505,1951.81,3171.8,2138c-289.65,161.79-627.77,247.88-957.37,207.12s-647.34-216.54-827.19-494.48c-81-125.22-134.19-268.89-232-381.64-134-154.45-339-233.55-542.75-256S203.21,1218.72.2,1247V2.93C0,2.27-.3.44.2,0s3,0,3.68,0H7680Z"/><path class="cls-2" d="M5860,3.07h4.37c-187.87,378.77-583.94,645.71-1005.54,677.71-225.66,17.13-474.67-22.68-660,107.21-122.61,85.92-189.1,228.83-276.08,350.69-230.16,322.47-626.61,506.6-1022.55,520.56s-787.72-130.39-1110.64-359.94c-170.07-120.9-325.27-266.23-513.94-355.37C884.16,759,424.55,845.74,1.13,936.13c.85-.18,0-26.28,0-28.81L1,877.92l-.1-58.79L.75,701.54.57,584,.38,466.36.19,348.77,0,231.18-.19,113.59-.29,54.8-.34,25.4l0-14.7C-.36,7.56-1.84,1,1.34-.24c1.77-.66,5.11,0,7,0H30.71l29.41,0,58.82,0L236.58-.1,354.22,0,471.86,0,589.49.1,707.13.16,824.77.23,942.41.3l117.64.06,117.63.07L1295.32.5,1413,.56,1530.6.63l117.64.06,117.64.07,117.63.07,117.64.06L2118.79,1,2236.43,1l117.64.06,117.63.07,117.64.07L2707,1.29l117.64.07,117.64.07,117.63.06,117.64.07,117.64.06,117.64.07,117.64.07,117.63.06,117.64.07L3883.36,2,4001,2l117.64.07,117.63.07,117.64.06,117.64.07,117.64.06,117.64.07,117.63.07,117.64.06,117.64.07,117.64.07L5295,2.75l117.63.07,117.64.07L5647.93,3,5765.57,3Z"/></svg>